<svg xmlns="http://www.w3.org/2000/svg" enable-background="new 0 0 64 64" viewBox="0 0 64 64"><path fill="#2f2f2f" d="M52.414,1H17v28.051C16.668,29.029,16.338,29,16,29C7.729,29,1,35.729,1,44s6.729,15,15,15    c0.338,0,0.668-0.029,1-0.051V63h46V11.586L52.414,1z M26.163,33c-0.951-0.88-2.009-1.644-3.163-2.256V7h28v6h6v20H26.163z M53,11    V4.414L59.586,11H53z M19,3h32v2H21v24.875c-0.65-0.231-1.313-0.433-2-0.573V3z M3,44c0-7.168,5.832-13,13-13s13,5.832,13,13    s-5.832,13-13,13S3,51.168,3,44z M29.98,49.394l2.313,2.313l1.414-1.414l-1.138-1.138L34.303,48h1.283l2.707,2.707l1.414-1.414    L36.414,46h-2.717l-2.57,1.713l-0.42-0.42l-0.112,0.112C30.851,46.309,31,45.173,31,44c0-1.755-0.319-3.433-0.875-5H41v18H23.451    C26.412,55.296,28.733,52.614,29.98,49.394z M19,61v-2.302c0.687-0.14,1.35-0.342,2-0.573V59h22V37H29.256    c-0.373-0.704-0.808-1.368-1.285-2H59V13h2v48H19z" class="color333333 svgShape"/><path fill="#2f2f2f" d="M17 35v-2h-2v2c-2.757 0-5 2.243-5 5s2.243 5 5 5h2c1.654 0 3 1.346 3 3s-1.346 3-3 3h-2c-1.654 0-3-1.346-3-3v-1h-2v1c0 2.757 2.243 5 5 5v2h2v-2c2.757 0 5-2.243 5-5s-2.243-5-5-5h-2c-1.654 0-3-1.346-3-3s1.346-3 3-3h2c1.654 0 3 1.346 3 3v1h2v-1C22 37.243 19.757 35 17 35zM49 29h-2v-5h-2v5h-2V11h2v11h2V9h-6v20h-2V13h-6v16h-2V19h-6v10 1 1h30v-1-1V15h-6V29zM35 15h2v14h-2V15zM27 21h2v8h-2V21zM53 17v12h-2V17H53z" class="color333333 svgShape"/><rect width="14" height="2" x="45" y="37" fill="#2f2f2f" class="color333333 svgShape"/><rect width="14" height="2" x="45" y="41" fill="#2f2f2f" class="color333333 svgShape"/><rect width="14" height="2" x="45" y="45" fill="#2f2f2f" class="color333333 svgShape"/><rect width="14" height="2" x="45" y="49" fill="#2f2f2f" class="color333333 svgShape"/><rect width="14" height="2" x="45" y="53" fill="#2f2f2f" class="color333333 svgShape"/><rect width="2" height="2" x="57" y="57" fill="#2f2f2f" class="color333333 svgShape"/><rect width="10" height="2" x="45" y="57" fill="#2f2f2f" class="color333333 svgShape"/></svg>