<svg xmlns="http://www.w3.org/2000/svg" viewBox="0 0 499.999 499.999"><path fill="#2f2f2f" d="M250 190.391c-10.668 0-19.316 8.659-19.316 19.34s8.648 19.34 19.316 19.34 19.316-8.659 19.316-19.34-8.649-19.34-19.316-19.34zm0 24.825c-3.021 0-5.478-2.46-5.478-5.485s2.457-5.485 5.478-5.485 5.478 2.46 5.478 5.485-2.458 5.485-5.478 5.485z" class="color4f4f4f svgShape"/><ellipse cx="226.052" cy="88.045" fill="#2f2f2f" class="color4f4f4f svgShape" rx="6.199" ry="8"/><ellipse cx="273.947" cy="88.045" fill="#2f2f2f" class="color4f4f4f svgShape" rx="6.199" ry="8"/><path fill="#2f2f2f" d="m393.296 322.711-8.557-16.064a6.002 6.002 0 0 0-5.296-3.18h-3.232V291.05h3.232a6.002 6.002 0 0 0 5.296-3.18 40.112 40.112 0 0 0 0-37.769 5.99 5.99 0 0 0-2.527-2.488V229a5.996 5.996 0 0 0 5.856-5.993v-40.773c0-19.851-16.149-36-36-36-4.114 0-7.915 1.191-8.204 6-.136 2.267 0 4.58 0 6.852h-14.776c-2.148-6.372-7.601-11.231-14.318-12.509l-5.521-54.933c7.723-3.045 13.211-10.585 13.211-19.409 0-9.865-6.861-18.116-16.035-20.282l.003-.031c1.627-13.165-2.544-26.458-11.443-36.472C286.068 5.415 273.773-.037 260.292 0c-8.352.045-14.768.057-20.796.04h-.135c-13.594 0-26.412 5.936-35.185 16.299-8.438 9.966-12.272 22.839-10.696 35.614-9.129 2.202-15.941 10.447-15.941 20.28 0 8.755 5.4 16.255 13.026 19.352l-5.839 55.199c-6.314 1.516-11.394 6.214-13.448 12.301h-15.142v-6.852c0-4.825-4.29-6-8.204-6-19.851 0-36 16.149-36 36v40.773a5.997 5.997 0 0 0 5.856 5.993v18.614a5.984 5.984 0 0 0-2.527 2.488 40.112 40.112 0 0 0 0 37.769 6.002 6.002 0 0 0 5.296 3.18h3.232v12.417h-3.232a6.002 6.002 0 0 0-5.296 3.18l-8.557 16.064a6.006 6.006 0 0 0 0 5.641l8.557 16.064a6 6 0 0 0 10.592-5.64l-7.055-13.244 5.361-10.064h19.749l5.361 10.064-7.055 13.244c-1.461 2.743-.525 6.256 2.111 7.903 2.911 1.819 6.867.769 8.481-2.263l8.557-16.064a6.006 6.006 0 0 0 0-5.641l-8.557-16.064a6.002 6.002 0 0 0-5.296-3.18h-3.232V291.05h3.232a6.002 6.002 0 0 0 5.296-3.18 40.112 40.112 0 0 0 0-37.769 5.991 5.991 0 0 0-2.528-2.488V229a5.997 5.997 0 0 0 5.857-5.993v-32.394h14.15v30.273c0 1.147.329 2.271.948 3.236l17.875 27.899a5.997 5.997 0 0 0 5.052 2.764h24.723v12.456h-42.598a6 6 0 0 0-6 6v32.557c0 1.943.94 3.766 2.524 4.891l5.974 4.245v26.92a5.993 5.993 0 0 0-2.404.896 6 6 0 0 0-2.727 4.857l-3.365 117.083c-7.438 7.532-12.04 17.883-12.04 29.309a6 6 0 0 0 6 6h65.771a6 6 0 0 0 6-6v-35.697a5.995 5.995 0 0 0-5.619-5.98l-2.941-87.607a6.003 6.003 0 0 0-3.722-5.351l-1.41-.578v-13.147a5.985 5.985 0 0 0 2.188.432h51.34a5.99 5.99 0 0 0 2.188-.432v13.148l-1.409.578a6.001 6.001 0 0 0-3.722 5.351l-1.424 42.406a6 6 0 0 0 5.796 6.198 5.998 5.998 0 0 0 6.198-5.796l1.293-38.527 24.039-9.852 6.158-2.523.69 24.013-17.375 3.131v44.566l18.843 3.395.699 24.33c-.163-.075-.331-.138-.495-.21v.028a41.361 41.361 0 0 0-16.837-3.571h-30.145a6 6 0 0 0-6 6v35.697a6 6 0 0 0 6 6h65.77c3.313 0 6-2.759 6-6.072 0-11.39-4.602-21.723-12.041-29.247l-3.364-117.072a5.997 5.997 0 0 0-2.727-4.858 5.983 5.983 0 0 0-2.405-.896v-26.919l5.975-4.245a5.997 5.997 0 0 0 2.524-4.891v-32.557a6 6 0 0 0-6-6h-42.599v-12.456h23.891a6 6 0 0 0 4.983-2.658l18.708-27.899a5.997 5.997 0 0 0 1.017-3.342v-30.273h13.78v32.394a5.997 5.997 0 0 0 5.857 5.993v18.614a5.986 5.986 0 0 0-2.528 2.488 40.112 40.112 0 0 0 0 37.769 6.002 6.002 0 0 0 5.296 3.18h3.232v12.417h-3.232a6.002 6.002 0 0 0-5.296 3.18l-8.557 16.064a6.006 6.006 0 0 0 0 5.641l8.557 16.064a6 6 0 0 0 10.592-5.64l-7.055-13.244 5.361-10.064h19.749l5.361 10.064-7.055 13.244c-1.461 2.743-.525 6.256 2.111 7.903 2.911 1.819 6.867.769 8.481-2.263l8.557-16.064c.94-1.767.94-3.882.002-5.645zM123.931 182.234c0-11.942 8.768-21.875 20.204-23.7v58.474h-20.204v-34.774zm14.347 46.773v17.7h-8.49v-17.7h8.49zm5.387 50.043h-19.263a28.115 28.115 0 0 1 0-20.128h19.263a28.115 28.115 0 0 1 0 20.128zM310.46 72.234c0 2.424-.971 4.62-2.536 6.224l-1.365-13.585a8.887 8.887 0 0 1 3.901 7.361zm-11.177 40.244 3.393 33.756h-21.563V133.79a55.088 55.088 0 0 0 18.17-21.312zm-91.954-36.936A97.268 97.268 0 0 0 272.4 52.479l20.271 19.833V88.77c0 23.567-19.098 42.74-42.571 42.74h-.2c-23.474 0-42.571-19.173-42.571-42.74V75.542zm61.783 64.544v25.338h-37.827v-25.198c12.123 4.417 25.738 4.365 37.827-.14zm-68.636-28.115a55.055 55.055 0 0 0 18.809 22.083v12.179h-22.434l3.625-34.262zM189.54 72.234a8.885 8.885 0 0 1 3.847-7.318l-1.42 13.429a8.889 8.889 0 0 1-2.427-6.111zm34.478 392.068v23.697h-53.175c2.754-13.504 14.724-23.697 29.029-23.697h24.146zm-39.309-83.71.689-23.972 30.197 12.375 2.796 83.306H199.75a41.358 41.358 0 0 0-17.209 3.754l.698-24.288 19.073-3.437v-44.566l-17.603-3.172zm6.075-34.733v-22.396l19.543 13.887v16.519l-19.543-8.01zm118.801.001-3.64 1.492-15.903 6.516v-16.519l19.543-13.887v22.398zm19.93 142.139h-53.164v-23.697h24.145c14.288 0 26.247 10.169 29.019 23.697zm-11.431-185.297-44.145 31.367h-47.51l-44.144-31.367v-23.46h135.798v23.46zm-48.599-35.46h-38.602v-12.456h38.602v12.456zm48.599-48.18-15.909 23.725H197.442l-15.156-23.656v-54.046a6.85 6.85 0 0 1 5.881-6.776l31.118-.075v13.19a6 6 0 0 0 6 6h49.827a6 6 0 0 0 6-6v-13.19h30.137c3.769 0 6.835 3.073 6.835 6.851v53.977zm37.78-60.529c11.437 1.825 20.204 11.758 20.204 23.7v34.773h-20.204v-58.473zm14.348 70.474v17.7h-8.49v-17.7h8.49zm5.385 50.043h-19.263a28.115 28.115 0 0 1 0-20.128h19.263a28.104 28.104 0 0 1 0 20.128z" class="color4f4f4f svgShape"/><ellipse cx="276.482" cy="432.812" fill="#2f2f2f" class="color4f4f4f svgShape" rx="6.755" ry="6.778"/></svg>