<svg xmlns="http://www.w3.org/2000/svg" fill-rule="evenodd" clip-rule="evenodd" image-rendering="optimizeQuality" shape-rendering="geometricPrecision" text-rendering="geometricPrecision" viewBox="0 0 21.12 21.12"><polygon fill="none" points="0 0 21.12 0 21.12 21.12 0 21.12"/><path fill="#2f2f2f" d="M0.17 8.02c0.14,-1.95 1.69,-2.69 2.96,-2.87 5.46,-0.77 9.48,-0.77 14.93,0 1.28,0.18 2.82,0.92 2.96,2.87l0 8.48c-0.14,1.95 -1.68,2.7 -2.96,2.88 -0.63,0.08 -1.24,0.16 -1.83,0.23 0,0 -4.6,0.71 -13.1,-0.23 -1.28,-0.15 -2.82,-0.93 -2.96,-2.88l0 -8.48z" class="color1c1c1c svgShape"/><path fill="#fff" d="M2.54 8.43l0 7.66c0.06,0.65 0.48,0.88 0.99,0.97 1.81,0.31 3.62,0.51 5.45,0.51 1.84,0 3.64,-0.2 5.46,-0.51 0.51,-0.09 0.92,-0.32 0.99,-0.97l0 -7.66c-0.07,-0.65 -0.48,-0.88 -0.99,-0.97 -1.82,-0.31 -3.62,-0.51 -5.46,-0.51 -1.83,0 -3.64,0.2 -5.45,0.51 -0.51,0.09 -0.93,0.32 -0.99,0.97z" class="colorffffff svgShape"/><path fill="gray" fill-rule="nonzero" d="M13.6 1.6l-2.31 1.38 -1.2 0.65 -1.21 -0.38 -5.49 -2.33c-0.01,0.26 -0.14,0.5 -0.33,0.65l5.57 2.37c-0.01,0.06 3.12,-0.18 3.06,-0.34l2.32 -1.4c-0.21,-0.13 -0.37,-0.35 -0.41,-0.6z" class="colore31c25 svgShape"/><path fill="#5d5d5d" fill-rule="nonzero" d="M3.39.92c0-.01 0-.02 0-.03 0-.49-.4-.89-.88-.89-.49 0-.89.4-.89.89 0 .49.4.88.89.88.21 0 .4-.07.55-.2.19-.15.32-.39.33-.65zM14.47.56c-.49 0-.89.4-.89.89 0 .05.01.1.02.15.04.25.2.47.41.6.14.08.29.13.46.13.49 0 .88-.39.88-.88 0-.49-.39-.89-.88-.89z" class="colorbb000e svgShape"/><path fill="#525252" fill-rule="nonzero" d="M12.14 4.6c-0.05,-0.83 -0.73,-1.44 -1.56,-1.44l-1.53 0c-0.82,0 -1.52,0.71 -1.58,1.52 1.56,-0.07 3.13,-0.13 4.67,-0.08z" class="color525252 svgShape"/><path fill="#fff" d="M19.28 14.69c0 .68-.55 1.23-1.23 1.23-.68 0-1.23-.55-1.23-1.23 0-.68.55-1.23 1.23-1.23.68 0 1.23.55 1.23 1.23zM18.75 11.05c0 .39-.31.7-.7.7-.39 0-.7-.31-.7-.7 0-.38.31-.7.7-.7.39 0 .7.32.7.7zM18.75 9.11c0 .39-.31.7-.7.7-.39 0-.7-.31-.7-.7 0-.39.31-.7.7-.7.39 0 .7.31.7.7z" class="colorffffff svgShape"/><path fill="#525252" fill-rule="nonzero" d="M4.71 20.52c-.21.22-.06.59.25.59l.97 0c.1 0 .19-.04.25-.11l1.21-1.26c-.57-.03-1.17-.07-1.79-.12l-.89.9zM15.37 21.01c.07.06.15.1.25.1l.92 0c.3 0 .45-.36.24-.57l-.83-.89c-.32.04-.9.09-1.74.14l1.16 1.22z" class="color525252 svgShape"/><path fill="#5d5d5d" d="M17.78 14.07c-2.24,-2.91 -3.13,-2.24 -3.13,-2.24l-0.56 0.27c-0.29,0.15 -0.54,0.36 -0.71,0.64 -0.26,0.42 -0.7,0.82 -1.27,1.1 -0.56,0.27 -1.14,0.38 -1.63,0.33 -0.32,-0.03 -0.65,0.04 -0.94,0.19 0,0 -1.62,0.43 -0.09,4.68 0.34,1.02 0.69,1.56 0.97,1.84 0.24,0.25 0.62,0.31 0.94,0.15l0.03 -0.02c0.24,-0.11 0.4,-0.34 0.45,-0.6 0.19,-1.14 1.05,-2.26 2.34,-2.9 1.29,-0.63 2.69,-0.63 3.71,-0.1 0.24,0.13 0.52,0.14 0.76,0.02l0.26 -0.13c0,0 1.11,-0.32 -1.13,-3.23z" class="colorbb000e svgShape"/><path fill="#fff" d="M11.09 15.66c.2.4.04.87-.35 1.06-.4.2-.87.04-1.06-.36-.2-.39-.04-.86.36-1.05.39-.2.86-.04 1.05.35zM15.44 15.43c.2.4.04.87-.35 1.06-.4.2-.87.04-1.06-.36-.2-.39-.04-.86.36-1.05.39-.2.86-.04 1.05.35zM15.35 12.65c.11.23.02.5-.2.61-.23.11-.5.02-.61-.21-.11-.22-.01-.49.21-.6.22-.11.49-.02.6.2zM16.52 12.99c.11.22.02.49-.21.6-.22.11-.49.02-.6-.21-.11-.22-.02-.49.21-.6.22-.11.49-.02.6.21zM16.06 14.09c.11.23.02.5-.2.6-.23.11-.49.02-.6-.2-.11-.22-.02-.49.2-.6.22-.11.49-.02.6.2zM14.99 13.74c.11.22.02.49-.21.6-.22.11-.49.02-.6-.2-.11-.22-.02-.49.21-.6.22-.11.49-.02.6.2z" class="colorffffff svgShape"/><polygon fill="#fff" points="12.93 17.56 12.46 17.79 11.76 16.37 12.23 16.14" class="colorffffff svgShape"/><polygon fill="#fff" points="11.75 17.55 11.52 17.08 12.94 16.38 13.17 16.85" class="colorffffff svgShape"/><path fill="gray" fill-rule="nonzero" d="M.19 8.64c.03.13.07.26.11.39.11-.02.23-.04.34-.06 2.15-.48 3.51-2.62 3.03-4.77-.05-.24-.12-.46-.21-.67 0 0-.01 0-.01 0-2.31.51-3.77 2.8-3.26 5.11zM5.13 11.93c.06-.01.12-.02.18-.03 2.13-.47 3.53-2.46 3.34-4.57-.15.01-.3.03-.45.07-2.07.46-3.41 2.46-3.07 4.53z" class="colore31c25 svgShape"/><path fill="gray" fill-rule="nonzero" d="M8.08 6.83c0.16,-0.04 0.32,-0.06 0.48,-0.08 -0.49,-2.09 -2.43,-3.47 -4.51,-3.31 0.07,0.21 0.14,0.41 0.19,0.63 0.55,2.47 -1.01,4.92 -3.48,5.47 -0.08,0.01 -0.16,0.02 -0.24,0.04 0.74,1.52 2.32,2.49 4.03,2.42 -0.37,-2.37 1.16,-4.65 3.53,-5.17z" class="colore31c25 svgShape"/><path fill="#fff" fill-rule="nonzero" d="M4.24 4.07c-.05-.22-.12-.42-.19-.63-.2.02-.39.04-.59.09.09.21.16.43.21.67.48 2.15-.88 4.29-3.03 4.77-.11.02-.23.04-.34.06.06.19.14.37.22.55.08-.02.16-.03.24-.04 2.47-.55 4.03-3 3.48-5.47zM8.2 7.4c.15-.04.3-.06.45-.07-.02-.18-.04-.36-.08-.55-.01-.01-.01-.02-.01-.03-.16.02-.32.04-.48.08-2.37.52-3.9 2.8-3.53 5.17.19-.01.38-.03.58-.07-.34-2.07 1-4.07 3.07-4.53z" class="colorffffff svgShape"/><path fill="#fff" fill-rule="nonzero" d="M6.2 8.52l-2.8 -1.78 -2.47 -1.57c-0.11,0.16 -0.22,0.32 -0.31,0.49l2.5 1.59 2.71 1.72 2.01 1.28c0.11,-0.16 0.21,-0.32 0.3,-0.49l-1.94 -1.24z" class="colorffffff svgShape"/></svg>