<svg xmlns="http://www.w3.org/2000/svg" viewBox="0 0 512 512"><path fill="#ededed" d="M245.12 270.422 92 358.832l153.12 88.345 153.12-88.345-153.12-88.41z" class="colordef4fc svgShape"/><path fill="#d4d4d4" d="m92.004 358.807 153.071-88.433.044-157.41L92 201.36ZM245.12 112.963l.006-.003V93.595Z" class="colorafd8f9 svgShape"/><path fill="#d1d1d1" d="m245.075 270.374.044-157.405L92.004 358.807Zm.044-157.405.006-.009V93.595Z" class="coloraad2f9 svgShape"/><path fill="#dedede" d="m97.767 162.596 17.296-9.994 1.536 2.659-17.296 9.993zM97.77 176.419l8.913-5.146 1.534 2.658-8.914 5.146zM97.767 189.436l17.296-9.993 1.535 2.658-17.295 9.993z" class="colorc8dff5 svgShape"/><path fill="#2f2f2f" d="M108.778 198.676a1.534 1.534 0 0 0-2.096-.563l-8.913 5.145a1.535 1.535 0 1 0 1.534 2.658l8.913-5.144a1.536 1.536 0 0 0 .562-2.096zm8.38 8.167a1.534 1.534 0 0 0-2.095-.56l-17.296 9.993a1.535 1.535 0 1 0 1.536 2.657l17.296-9.993a1.534 1.534 0 0 0 .56-2.097zm-8.38 18.673a1.534 1.534 0 0 0-2.096-.562l-8.913 5.143a1.535 1.535 0 1 0 1.534 2.658l8.913-5.143a1.536 1.536 0 0 0 .562-2.096zm8.38 8.167a1.533 1.533 0 0 0-2.095-.561l-17.296 9.994a1.534 1.534 0 1 0 1.536 2.657l17.296-9.994a1.534 1.534 0 0 0 .56-2.096zm-8.38 18.673a1.535 1.535 0 0 0-2.096-.562l-8.913 5.143a1.535 1.535 0 1 0 1.534 2.658l8.913-5.143a1.536 1.536 0 0 0 .562-2.096zm8.38 8.167a1.534 1.534 0 0 0-2.095-.56l-17.296 9.992a1.535 1.535 0 1 0 1.536 2.657l17.296-9.992a1.534 1.534 0 0 0 .56-2.097zm-8.38 18.673a1.534 1.534 0 0 0-2.096-.562l-8.913 5.143a1.535 1.535 0 1 0 1.534 2.658l8.913-5.143a1.536 1.536 0 0 0 .562-2.096zm8.38 8.167a1.534 1.534 0 0 0-2.095-.562l-17.296 9.994a1.535 1.535 0 1 0 1.536 2.657l17.296-9.993a1.534 1.534 0 0 0 .56-2.096zm-8.38 18.672a1.534 1.534 0 0 0-2.096-.562l-8.913 5.143a1.535 1.535 0 1 0 1.534 2.658l8.913-5.143a1.536 1.536 0 0 0 .562-2.096zm8.38 8.167a1.534 1.534 0 0 0-2.095-.56l-17.296 9.992a1.535 1.535 0 0 0 1.536 2.658l17.296-9.993a1.534 1.534 0 0 0 .56-2.097zm-8.38 18.673a1.534 1.534 0 0 0-2.096-.562l-8.913 5.143a1.535 1.535 0 1 0 1.534 2.659l8.913-5.144a1.536 1.536 0 0 0 .562-2.096z" class="color2481d7 svgShape"/><path fill="#888" d="M124.644 219.607v139.2l32.422 18.708 32.423-18.708v-139.2h-64.845z" class="color288de8 svgShape"/><path fill="#d4d4d4" d="m245.123 377.515-32.432-18.708v69.663l32.432 18.707 32.415-18.707v-69.663l-32.415 18.708z" class="colorafd8f9 svgShape"/><path fill="#ededed" d="M212.691 257.759v30.982l32.432 18.707v-49.689h-32.432z" class="colordef4fc svgShape"/><path fill="#dedede" d="M212.691 358.403v70.067l32.432 18.707v-70.066l-32.432-18.708z" class="colorc8dff5 svgShape"/><path fill="#d4d4d4" d="m333.182 377.515-32.432-18.708v56.274l64.847-37.415v-18.859l-32.415 18.708z" class="colorafd8f9 svgShape"/><path fill="#dedede" d="M300.75 358.403v56.678l32.432-18.713v-19.257l-32.432-18.708z" class="colorc8dff5 svgShape"/><path fill="#d4d4d4" d="m157.075 377.515-32.432-18.708v18.859l64.846 37.415v-56.274l-32.414 18.708z" class="colorafd8f9 svgShape"/><path fill="#dedede" d="M124.643 358.403v19.263l32.432 18.712v-19.267l-32.432-18.708z" class="colorc8dff5 svgShape"/><path fill="#888" d="M212.691 188.096v170.711l32.432 18.708 32.415-18.708V188.096h-64.847z" class="color288de8 svgShape"/><path fill="#9e9e9e" d="M212.691 188.096v170.711l32.432 18.708V188.096h-32.432z" class="color5ba1e1 svgShape"/><path fill="#a7a7a7" d="m245.123 169.376-32.432 18.72 32.432 18.71 32.415-18.71-32.415-18.72zM245.123 340.085l-32.432 18.72 32.432 18.71 32.415-18.71-32.415-18.72z" class="color6ab0e5 svgShape"/><path fill="#9e9e9e" d="M124.644 219.607v139.2l32.422 18.708V219.607h-32.422z" class="color5ba1e1 svgShape"/><path fill="#a7a7a7" d="m157.066 200.886-32.422 18.721 32.422 18.707 32.423-18.707-32.423-18.721zM157.066 340.086l-32.422 18.721 32.422 18.708 32.423-18.708-32.423-18.721z" class="color6ab0e5 svgShape"/><path fill="#dedede" d="M341.235 180.978h21.573v3.069h-21.573zM327.12 180.978h2.382v3.069h-2.382zM315.7 180.978h2.38v3.069h-2.38zM304.283 180.978h2.378v3.069h-2.378zM127.431 180.978h21.573v3.069h-21.573zM160.738 180.978h2.38v3.069h-2.38zM172.16 180.978h2.379v3.069h-2.379zM183.58 180.978h2.381v3.069h-2.381zM302.019 241.578l2.173-2.168 1.678 1.682-2.172 2.168zM293.944 233.507l2.17-2.17 1.681 1.682-2.169 2.17zM285.865 225.428l2.17-2.17 1.685 1.685-2.17 2.17zM160.817 100.378l2.17-2.17 15.25 15.253-2.169 2.17zM184.371 123.93l2.171-2.169 1.679 1.682-2.171 2.168zM192.447 132.009l2.167-2.171 1.681 1.678-2.168 2.17zM200.517 140.08l2.172-2.169 1.68 1.682-2.172 2.169zM243.585 278.629h3.069V300.2h-3.069zM243.587 264.508h3.069v2.38h-3.069zM243.586 253.093h3.069v2.378h-3.069zM243.585 241.67h3.069v2.383h-3.069zM243.585 64.823h3.069v21.57h-3.069zM243.584 98.129h3.069v2.381h-3.069zM243.584 109.551h3.069v2.379h-3.069zM243.585 123.35l.002-2.383 3.07.004-.003 2.382zM160.817 264.647l15.252-15.253 2.17 2.17-15.252 15.252zM184.37 241.094l1.679-1.683 2.173 2.167-1.679 1.683zM192.446 233.02l1.68-1.683 2.172 2.17-1.68 1.681zM200.516 224.943l1.686-1.685 2.17 2.17-1.687 1.686zM312 113.461l5.729-5.73 2.17 2.168-5.729 5.731zM302.016 123.444l1.68-1.686 2.174 2.166-1.68 1.686zM293.944 131.514l1.683-1.678 2.167 2.174-1.684 1.678zM285.867 139.59l1.687-1.68 2.167 2.173-1.687 1.68z" class="colorc8dff5 svgShape"/><path fill="#dedede" d="M138.874 182.512h-3.07A109.438 109.438 0 0 0 245.12 291.825v-3.07a106.366 106.366 0 0 1-106.246-106.243zM245.12 73.195v3.069a106.368 106.368 0 0 1 106.246 106.248h3.069A109.44 109.44 0 0 0 245.12 73.195z" class="colorc8dff5 svgShape"/><path fill="#dedede" d="M351.366 182.509q0 .758-.01 1.514l3.068.04q.01-.775.01-1.554zm-56.158 93.722 1.447 2.706q1.35-.722 2.678-1.482l-1.524-2.663q-1.29.738-2.601 1.44zm-5.315 2.658 1.294 2.783q1.388-.646 2.755-1.33l-1.373-2.744q-1.327.663-2.676 1.291zm10.476-5.611 1.596 2.621q1.31-.797 2.592-1.63l-1.671-2.574q-1.246.809-2.517 1.583zm-15.928 7.964 1.136 2.851q1.421-.566 2.823-1.17l-1.217-2.819q-1.36.588-2.742 1.138zm20.918-11.202 1.742 2.527q1.26-.868 2.495-1.772l-1.812-2.477q-1.2.878-2.425 1.722zm9.404-7.291 2.012 2.317q1.156-1.005 2.285-2.041l-2.078-2.26q-1.095 1.007-2.22 1.984zm-59.16 25.497.298 3.054q1.53-.15 3.046-.341l-.385-3.045q-1.473.186-2.96.332zm5.909-.747.469 3.033q1.518-.235 3.022-.511l-.554-3.018q-1.461.268-2.937.496zm57.636-28.78 2.138 2.201q1.099-1.067 2.168-2.165l-2.199-2.14q-1.039 1.066-2.107 2.104zm-69.486 29.942.13 3.066q1.534-.065 3.056-.171l-.214-3.062q-1.48.104-2.972.167zm29.196-5.374.973 2.911q1.456-.487 2.894-1.014l-1.056-2.881q-1.396.512-2.81.984zm-11.487 3.135.638 3.002q1.503-.32 2.99-.681l-.725-2.982q-1.443.35-2.903.66zm5.787-1.405.807 2.961q1.482-.403 2.946-.849l-.891-2.936q-1.422.432-2.862.824zm37.003-18.49 1.88 2.425q1.21-.938 2.394-1.91l-1.947-2.372q-1.15.944-2.327 1.857zm38.221-58.91 2.982.723q.36-1.487.68-2.989l-3.001-.637q-.311 1.459-.66 2.903zm1.238-5.826 3.018.554q.277-1.504.511-3.022l-3.033-.47q-.228 1.476-.496 2.938zm-2.804 11.574 2.937.89q.444-1.465.847-2.946l-2.96-.807q-.393 1.44-.824 2.863zm-23.512 41.086 2.257 2.079q1.038-1.128 2.045-2.284l-2.315-2.015q-.978 1.124-1.987 2.22zm21.618-35.419 2.882 1.055q.529-1.441 1.016-2.902l-2.91-.973q-.474 1.42-.988 2.82zm5.608-23.127 3.044.382q.19-1.516.34-3.045l-3.054-.298q-.145 1.486-.33 2.961zm.743-8.904q-.062 1.493-.166 2.975l3.061.213q.107-1.525.17-3.06zm-20.4 58.247 2.476 1.814q.905-1.236 1.777-2.5l-2.524-1.743q-.848 1.227-1.729 2.429zm-3.657 4.708 2.369 1.95q.975-1.184 1.916-2.396l-2.424-1.882q-.914 1.177-1.86 2.328zm7.047-9.616 2.571 1.675q.837-1.286 1.638-2.597l-2.62-1.6q-.777 1.274-1.59 2.522zm3.11-5.09 2.66 1.528q.764-1.331 1.49-2.686l-2.705-1.45q-.705 1.316-1.446 2.608zm5.337-10.67 2.818 1.216q.608-1.41 1.178-2.837l-2.85-1.138q-.554 1.39-1.146 2.76zm-2.519 5.411 2.744 1.375q.688-1.372 1.337-2.767l-2.783-1.295q-.63 1.354-1.298 2.687zm-93.556 58.754q-.756.01-1.513.01v3.07q.78 0 1.556-.011zm-110.82-107.791q-.01.776-.01 1.555h3.069q0-.759.01-1.515zm22.926-65.449 2.423 1.884q.914-1.177 1.861-2.328l-2.369-1.95q-.974 1.183-1.915 2.394zm-15.207 26.553 2.85 1.137q.554-1.389 1.145-2.759l-2.819-1.215q-.606 1.409-1.176 2.837zm19.1-31.287 2.316 2.014q.978-1.123 1.987-2.22l-2.257-2.078q-1.038 1.127-2.045 2.284zm-16.665 25.647 2.782 1.294q.63-1.353 1.298-2.686l-2.744-1.375q-.688 1.372-1.336 2.767zm5.8-10.82 2.62 1.6q.777-1.274 1.59-2.522L153.406 123q-.837 1.286-1.638 2.597zm3.345-5.144 2.525 1.744q.848-1.227 1.729-2.428l-2.474-1.816q-.909 1.236-1.78 2.5zm-6.397 10.47 2.704 1.45q.706-1.315 1.447-2.607l-2.66-1.528q-.766 1.33-1.491 2.685zm-12.392 40.85 3.054.3q.145-1.487.33-2.962l-3.044-.382q-.19 1.516-.34 3.045zm.765-6.08 3.033.47q.229-1.476.496-2.938l-3.017-.554q-.277 1.503-.512 3.022zm4.33-17.862 2.911.972q.474-1.418.988-2.818l-2.882-1.058q-.529 1.442-1.016 2.904zm-5.52 30.057 3.066.127q.063-1.492.166-2.974l-3.061-.213q-.106 1.524-.17 3.06zm2.295-18.223 3.002.638q.31-1.46.66-2.903l-2.982-.725q-.361 1.487-.68 2.99zm1.444-5.958 2.961.807q.392-1.44.823-2.863l-2.937-.889q-.444 1.464-.847 2.945zm67.88-73.874 1.057 2.881q1.396-.511 2.81-.984l-.972-2.91q-1.457.486-2.894 1.013zm11.727-3.558.724 2.981q1.444-.35 2.904-.66l-.639-3.002q-1.502.32-2.989.68zm-5.914 1.613.891 2.937q1.422-.432 2.861-.825l-.806-2.96q-1.482.403-2.946.848zm11.909-2.89.554 3.017q1.461-.268 2.937-.496l-.47-3.033q-1.518.235-3.021.512zm15.212-1.707q-1.533.065-3.056.171l.215 3.062q1.48-.104 2.971-.167zm-38.61 8.804 1.217 2.817q1.36-.587 2.741-1.137l-1.134-2.852q-1.422.566-2.824 1.172zm29.454-8.036.386 3.045q1.473-.186 2.959-.33l-.298-3.055q-1.53.149-3.047.34zM190.91 87.562l1.524 2.664q1.289-.738 2.6-1.44l-1.447-2.706q-1.35.723-2.677 1.482zm-10.264 6.66 1.812 2.477q1.2-.877 2.426-1.722l-1.741-2.527q-1.262.869-2.497 1.772zm-4.838 3.752 1.946 2.372q1.151-.944 2.327-1.856l-1.88-2.425q-1.21.938-2.393 1.91zm-4.624 4.017 2.075 2.26q1.097-1.006 2.221-1.983l-2.012-2.317q-1.156 1.004-2.284 2.04zM196.3 84.674l1.373 2.745q1.327-.663 2.676-1.29l-1.295-2.783q-1.388.645-2.754 1.328zm-29.513 21.588 2.198 2.14q1.04-1.067 2.108-2.105l-2.138-2.201q-1.1 1.068-2.168 2.166zm18.899-15.514 1.67 2.574q1.247-.809 2.517-1.583l-1.596-2.621q-1.31.797-2.591 1.63zm57.88-17.543.044 3.069q.754-.01 1.513-.01v-3.07q-.78 0-1.557.011zM173.602 182.51h3.068a68.527 68.527 0 0 1 68.45-68.45v-3.069a71.599 71.599 0 0 0-71.518 71.519zm139.966 0a68.527 68.527 0 0 1-68.45 68.448v3.07a71.6 71.6 0 0 0 71.52-71.518z" class="colorc8dff5 svgShape"/><path fill="#dedede" d="m243.62 250.942-.067 3.068q.782.017 1.567.017v-3.069q-.751 0-1.5-.016zm-55.428-30.412-2.551 1.705c.574.86 1.176 1.719 1.79 2.554l2.472-1.817a68.631 68.631 0 0 1-1.71-2.442zm3.53 4.81-2.392 1.92a72.15 72.15 0 0 0 2.004 2.389l2.308-2.024a69.008 69.008 0 0 1-1.92-2.286zm-6.628-9.905-2.689 1.48a72.237 72.237 0 0 0 1.56 2.696l2.622-1.595a69.295 69.295 0 0 1-1.493-2.58zm8.347 16.513c.72.75 1.46 1.493 2.205 2.206l2.124-2.216a68.055 68.055 0 0 1-2.11-2.112zm-10.986-21.854-2.808 1.237c.416.945.86 1.895 1.318 2.821l2.75-1.36a67.328 67.328 0 0 1-1.26-2.698zm-5.637-23.067-3.062.198c.066 1.026.157 2.072.27 3.108l3.05-.331a67.716 67.716 0 0 1-.258-2.975zm1.807 11.789-2.982.727c.247 1.01.518 2.023.807 3.014l2.946-.858a67.93 67.93 0 0 1-.771-2.883zm1.669 5.73-2.905.986c.33.977.69 1.96 1.065 2.925l2.859-1.115a67.1 67.1 0 0 1-1.019-2.796zm-2.832-11.586-3.033.466c.157 1.027.34 2.06.54 3.072l3.01-.597a69.863 69.863 0 0 1-.517-2.94zm53.701 59.706c1.015.2 2.048.382 3.073.538l.463-3.034c-.98-.15-1.97-.323-2.94-.515zm-33.218-16.404c.778.684 1.581 1.36 2.389 2.008l1.922-2.392a69.486 69.486 0 0 1-2.285-1.921zm21.237 12.915c.966.377 1.954.737 2.938 1.07l.986-2.905a68.32 68.32 0 0 1-2.81-1.024zm18.478 1.38-.33 3.05c1.024.112 2.068.202 3.107.269l.197-3.062a69.015 69.015 0 0 1-2.974-.257zm-12.556.63c.997.29 2.01.562 3.014.806l.726-2.981c-.96-.234-1.93-.493-2.884-.771zm-11.641-4.53c.924.458 1.877.903 2.832 1.324l1.238-2.808a67.069 67.069 0 0 1-2.708-1.266zm-10.656-6.484c.83.61 1.69 1.214 2.554 1.793l1.709-2.55a68.283 68.283 0 0 1-2.446-1.716zm5.186 3.473c.881.537 1.79 1.064 2.703 1.566l1.479-2.69a67.561 67.561 0 0 1-2.585-1.496zM176.67 182.51h-3.068q0 .785.016 1.566l3.069-.063q-.016-.75-.017-1.503zm68.45-71.519v3.07q.752 0 1.501.015l.068-3.068q-.783-.017-1.569-.017zm27.588 8.856c.918.405 1.83.83 2.707 1.266l1.362-2.75c-.919-.455-1.87-.901-2.831-1.324zm5.358 2.649c.872.48 1.743.984 2.584 1.497l1.598-2.62a70.037 70.037 0 0 0-2.703-1.566zm-10.931-4.82c.94.32 1.886.664 2.81 1.024l1.114-2.859a70.84 70.84 0 0 0-2.938-1.07zm16.035 7.927a68.55 68.55 0 0 1 2.445 1.717l1.82-2.472a71.792 71.792 0 0 0-2.557-1.795zm33.045 49.085-3.05.331c.106.992.193 1.993.256 2.975l3.063-.198a73.07 73.07 0 0 0-.27-3.108zm-28.23-45.547a68.76 68.76 0 0 1 2.285 1.922l2.026-2.305a70.923 70.923 0 0 0-2.387-2.008zm-32.444-14.293c.983.15 1.973.324 2.94.516l.597-3.01a71.965 71.965 0 0 0-3.073-.54zm5.856 1.158c.959.234 1.93.494 2.883.771l.857-2.946a70.93 70.93 0 0 0-3.014-.806zm-11.79-1.802c.993.065 1.994.151 2.974.258l.33-3.051a71.883 71.883 0 0 0-3.106-.269zm59.668 36.665-2.751 1.36a67.4 67.4 0 0 1 1.26 2.698l2.808-1.237a70.878 70.878 0 0 0-1.318-2.821zm2.51 5.695-2.859 1.115c.36.922.703 1.863 1.018 2.796l2.908-.985a70.706 70.706 0 0 0-1.067-2.926zm2.004 5.9-2.946.858c.275.948.536 1.918.77 2.883l2.983-.727a70.326 70.326 0 0 0-.807-3.014zm1.482 6.06-3.01.596c.191.968.365 1.957.516 2.94l3.033-.465a72.41 72.41 0 0 0-.54-3.072zm-16.365-33.153-2.307 2.024c.654.746 1.3 1.515 1.918 2.286l2.393-1.921a72.123 72.123 0 0 0-2.004-2.389zm-4.31-4.505-2.124 2.216a68.07 68.07 0 0 1 2.11 2.112l2.218-2.122a72.423 72.423 0 0 0-2.205-2.206zm8.213 9.366-2.474 1.816c.586.798 1.161 1.62 1.712 2.443l2.55-1.706a71.597 71.597 0 0 0-1.788-2.553zm3.465 5.178-2.622 1.595a67.814 67.814 0 0 1 1.492 2.58l2.69-1.478a70.765 70.765 0 0 0-1.56-2.697zm10.347 35.533-3.07.067q.018.749.017 1.501h3.07q0-.786-.017-1.568zm-177.747 1.569h-3.07A109.438 109.438 0 0 0 245.12 291.825v-3.07a106.366 106.366 0 0 1-106.246-106.243zM245.12 73.195v3.069a106.368 106.368 0 0 1 106.246 106.248h3.069A109.44 109.44 0 0 0 245.12 73.195z" class="colorc8dff5 svgShape"/><path fill="#dedede" d="M351.366 182.509q0 .758-.01 1.514l3.068.04q.01-.775.01-1.554zm-50.997 90.769 1.596 2.621q1.31-.797 2.592-1.63l-1.671-2.574q-1.246.809-2.517 1.583zm-10.476 5.611 1.295 2.783q1.387-.646 2.754-1.33l-1.373-2.744q-1.327.663-2.676 1.291zm29.255-20.17 2.138 2.201q1.099-1.067 2.168-2.165l-2.199-2.14q-1.039 1.066-2.107 2.104zm-13.789 11.321 1.742 2.527q1.26-.868 2.495-1.772l-1.812-2.477q-1.2.878-2.425 1.722zm4.802-3.513 1.88 2.425q1.21-.938 2.394-1.91l-1.947-2.372q-1.15.944-2.327 1.857zm4.602-3.778 2.012 2.317q1.156-1.005 2.285-2.041l-2.078-2.26q-1.095 1.007-2.22 1.984zm-19.555 13.482 1.447 2.706q1.35-.722 2.678-1.482l-1.524-2.663q-1.29.738-2.601 1.44zm-39.605 12.015.298 3.054q1.53-.15 3.046-.341l-.385-3.045q-1.473.186-2.96.332zm5.909-.747.469 3.033q1.518-.235 3.022-.511l-.554-3.018q-1.461.268-2.937.496zm22.929-6.257 1.136 2.851q1.421-.566 2.823-1.17l-1.217-2.819q-1.36.588-2.742 1.138zm-34.779 7.42.13 3.065q1.533-.065 3.056-.171l-.214-3.062q-1.48.104-2.972.167zm29.196-5.375.973 2.911q1.456-.487 2.894-1.014l-1.056-2.881q-1.396.512-2.81.984zm-5.7 1.73.807 2.961q1.482-.403 2.946-.849l-.891-2.936q-1.422.432-2.862.824zm-5.787 1.405.638 3.002q1.503-.32 2.99-.681l-.725-2.982q-1.443.35-2.903.66zm77.551-67.39 2.882 1.055q.529-1.441 1.016-2.902l-2.91-.973q-.474 1.42-.988 2.82zm3.46-11.415 2.982.723q.36-1.487.68-2.989l-3.001-.637q-.311 1.459-.66 2.903zm-1.566 5.748 2.937.89q.444-1.465.847-2.946l-2.96-.807q-.393 1.44-.824 2.863zm2.804-11.574 3.018.554q.277-1.504.511-3.022l-3.033-.469q-.228 1.475-.496 2.937zm1.653-14.79q-.062 1.493-.166 2.975l3.061.213q.107-1.525.17-3.06zm-.743 8.904 3.044.382q.19-1.516.34-3.045l-3.054-.298q-.145 1.486-.33 2.961zm-13.158 39.345 2.661 1.528q.764-1.331 1.49-2.686l-2.705-1.45q-.705 1.316-1.446 2.608zm-3.11 5.09 2.572 1.675q.837-1.286 1.638-2.597l-2.62-1.6q-.777 1.274-1.59 2.522zm-3.389 4.908 2.476 1.814q.905-1.236 1.777-2.5l-2.524-1.743q-.848 1.227-1.729 2.429zm-3.657 4.708 2.369 1.95q.975-1.184 1.916-2.396l-2.424-1.882q-.914 1.177-1.86 2.328zm15.494-25.376 2.818 1.216q.608-1.41 1.178-2.837l-2.85-1.138q-.554 1.39-1.146 2.76zm-19.406 29.87 2.257 2.08q1.038-1.128 2.045-2.284l-2.315-2.015q-.978 1.124-1.987 2.22zm16.887-24.459 2.744 1.375q.688-1.372 1.337-2.767l-2.783-1.295q-.63 1.354-1.298 2.687zm-93.556 58.754q-.756.01-1.513.01v3.07q.78 0 1.556-.011zm-110.82-107.791q-.01.776-.01 1.555h3.069q0-.759.01-1.515zm12.902-50.03 2.704 1.45q.706-1.315 1.447-2.608l-2.661-1.527q-.765 1.33-1.49 2.685zm-2.748 5.494 2.782 1.294q.63-1.353 1.298-2.686l-2.744-1.375q-.688 1.372-1.336 2.767zm-2.435 5.64 2.85 1.137q.554-1.389 1.145-2.759l-2.819-1.215q-.606 1.409-1.176 2.837zm8.235-16.46 2.62 1.6q.777-1.274 1.589-2.522L153.407 123q-.837 1.286-1.638 2.597zm3.345-5.144 2.525 1.744q.848-1.227 1.729-2.428l-2.474-1.817q-.909 1.237-1.78 2.501zm3.627-4.949 2.423 1.884q.914-1.177 1.861-2.328l-2.369-1.95q-.974 1.183-1.915 2.394zm-20.546 44.161 3.002.638q.31-1.46.66-2.903l-2.982-.725q-.361 1.487-.68 2.99zm-1.87 12.109 3.054.298q.145-1.486.33-2.961l-3.044-.382q-.19 1.516-.34 3.045zm.765-6.08 3.033.468q.229-1.475.496-2.937l-3.017-.554q-.277 1.503-.512 3.022zm-1.19 12.194 3.066.127q.063-1.492.166-2.974l-3.061-.213q-.106 1.524-.17 3.06zm3.74-24.18 2.96.806q.392-1.44.823-2.863l-2.937-.889q-.444 1.464-.847 2.945zm1.78-5.877 2.911.972q.474-1.418.988-2.818l-2.882-1.058q-.529 1.442-1.016 2.904zm21.215-37.061 2.315 2.014q.978-1.123 1.987-2.22l-2.257-2.078q-1.038 1.127-2.045 2.284zm68.662-36.71.386 3.044q1.473-.186 2.959-.33l-.298-3.055q-1.53.149-3.047.34zm-17.965 3.828.891 2.937q1.422-.432 2.861-.825l-.806-2.96q-1.482.403-2.946.848zm5.914-1.613.724 2.981q1.444-.35 2.904-.66l-.639-3.002q-1.502.32-2.989.68zm-11.726 3.558 1.056 2.881q1.396-.511 2.81-.984l-.972-2.91q-1.457.486-2.894 1.013zm-5.677 2.262 1.217 2.817q1.36-.587 2.741-1.137l-1.134-2.852q-1.422.566-2.824 1.172zm38.61-8.804q-1.533.065-3.056.171l.215 3.062q1.48-.104 2.971-.167zM225.24 75l.554 3.017q1.461-.268 2.937-.496l-.47-3.033q-1.518.235-3.021.512zm-39.554 15.75 1.67 2.573q1.247-.809 2.517-1.583l-1.596-2.621q-1.31.797-2.591 1.63zm-5.041 3.473 1.812 2.477q1.2-.877 2.426-1.722l-1.741-2.527q-1.262.869-2.497 1.772zm-4.838 3.752 1.946 2.372q1.151-.944 2.327-1.856l-1.88-2.425q-1.21.938-2.393 1.91zm-4.624 4.017 2.075 2.26q1.097-1.006 2.221-1.983l-2.012-2.317q-1.156 1.004-2.284 2.04zM196.3 84.674l1.373 2.745q1.327-.663 2.676-1.29l-1.295-2.783q-1.388.645-2.754 1.328zm-5.391 2.888 1.524 2.664q1.289-.738 2.6-1.44l-1.447-2.706q-1.35.723-2.677 1.482zm-24.122 18.7 2.198 2.14q1.04-1.067 2.108-2.105l-2.138-2.201q-1.1 1.068-2.168 2.166zm76.78-33.057.043 3.069q.754-.01 1.513-.01v-3.07q-.78 0-1.557.011zM194.81 182.512h3.068a47.298 47.298 0 0 1 47.243-47.244v-3.07a50.37 50.37 0 0 0-50.311 50.314zm97.552 0a47.295 47.295 0 0 1-47.243 47.24v3.069a50.367 50.367 0 0 0 50.312-50.309z" class="colorc8dff5 svgShape"/><path fill="#2f2f2f" d="m191.023 216.95-32.422-18.72a3.068 3.068 0 0 0-3.07 0l-32.422 18.72a3.069 3.069 0 0 0 0 5.315l32.423 18.707a3.07 3.07 0 0 0 3.068 0l32.423-18.707a3.069 3.069 0 0 0 0-5.316Zm-33.957 17.82-26.283-15.164 26.283-15.176 26.284 15.176Z" class="color2481d7 svgShape"/><path fill="#2f2f2f" d="M189.49 216.538a3.069 3.069 0 0 0-3.07 3.069v137.428l-29.354 16.937-29.354-16.937V219.607a3.069 3.069 0 0 0-6.137 0v139.2a3.07 3.07 0 0 0 1.535 2.658l32.422 18.708a3.07 3.07 0 0 0 3.068 0l32.423-18.708a3.069 3.069 0 0 0 1.535-2.658v-139.2a3.069 3.069 0 0 0-3.069-3.069Z" class="color2481d7 svgShape"/><path fill="#2f2f2f" d="M157.066 235.245a3.069 3.069 0 0 0-3.069 3.068v139.202a3.069 3.069 0 0 0 6.138 0V238.313a3.069 3.069 0 0 0-3.07-3.068zm122.006-49.807-32.414-18.72a3.07 3.07 0 0 0-3.07 0l-32.431 18.72a3.069 3.069 0 0 0 0 5.316l32.433 18.71a3.07 3.07 0 0 0 3.068 0l32.414-18.71a3.07 3.07 0 0 0 0-5.316zm-33.95 17.825-26.291-15.168 26.292-15.176 26.277 15.176z" class="color2481d7 svgShape"/><path fill="#2f2f2f" d="M277.538 185.027a3.069 3.069 0 0 0-3.07 3.069v168.94l-29.345 16.936-29.363-16.937v-168.94a3.069 3.069 0 0 0-6.138 0v170.712a3.07 3.07 0 0 0 1.535 2.658l32.433 18.708a3.069 3.069 0 0 0 3.067 0l32.414-18.708a3.068 3.068 0 0 0 1.535-2.658V188.096a3.069 3.069 0 0 0-3.068-3.069Z" class="color2481d7 svgShape"/><path fill="#2f2f2f" d="M245.124 203.737a3.069 3.069 0 0 0-3.07 3.069v170.709a3.069 3.069 0 0 0 6.138 0v-170.71a3.069 3.069 0 0 0-3.068-3.068Z" class="color2481d7 svgShape"/><path fill="#dedede" d="m382.35 305.123-7.142 7.149 2.171 2.169 4.969-4.975 4.965 4.975 2.172-2.169-7.135-7.149z" class="colorc8dff5 svgShape"/><path fill="#dedede" d="M380.814 307.295h3.069v13.763h-3.069zM380.814 324.406h3.069v3.294h-3.069zM380.814 329.757h3.069v3.293h-3.069zM380.814 335.105h3.069v3.295h-3.069zM380.814 341.159h3.069v8.719h-3.069zM382.35 245.164l-7.142 7.149 2.171 2.169 4.969-4.974 4.965 4.973 2.171-2.168-7.134-7.149z" class="colorc8dff5 svgShape"/><path fill="#dedede" d="M380.814 247.336h3.069v13.762h-3.069zM380.814 264.448h3.069v3.293h-3.069zM380.814 269.797h3.069v3.293h-3.069zM380.814 275.146h3.069v3.295h-3.069zM380.814 281.2h3.069v8.719h-3.069zM382.35 185.205l-7.142 7.148 2.171 2.169 4.969-4.974 4.965 4.974 2.171-2.168-7.134-7.149z" class="colorc8dff5 svgShape"/><path fill="#dedede" d="M380.814 187.377h3.069v13.762h-3.069zM380.814 204.488h3.069v3.294h-3.069zM380.814 209.838h3.069v3.293h-3.069zM380.814 215.187h3.069v3.294h-3.069zM380.814 221.24h3.069v8.72h-3.069zM382.35 125.246l-7.142 7.148 2.171 2.169 4.969-4.974 4.965 4.974 2.171-2.169-7.134-7.148z" class="colorc8dff5 svgShape"/><path fill="#dedede" d="M380.814 127.418h3.069v13.762h-3.069zM380.814 144.529h3.069v3.293h-3.069zM380.814 149.879h3.069v3.294h-3.069zM380.814 155.228h3.069v3.295h-3.069zM380.814 161.281h3.069V170h-3.069z" class="colorc8dff5 svgShape"/><path fill="#888" d="M300.75 156.587v202.22l32.423 18.708 32.424-18.708v-202.22H300.75z" class="color288de8 svgShape"/><path fill="#9e9e9e" d="M300.75 156.587v202.22l32.423 18.708V156.587H300.75z" class="color5ba1e1 svgShape"/><path fill="#a7a7a7" d="m333.173 137.867-32.423 18.72 32.423 18.708 32.424-18.708-32.424-18.72zM333.173 340.086l-32.423 18.719 32.423 18.71 32.424-18.71-32.424-18.719z" class="color6ab0e5 svgShape"/><path fill="#888" d="m325.704 183.074-8.25-8.248a.694.694 0 0 0-.984 0l-8.25 8.248a.705.705 0 0 0-.204.493v6.627a.698.698 0 0 0 1.192.492l7.753-7.757 7.753 7.757a.7.7 0 0 0 1.194-.492v-6.627a.704.704 0 0 0-.204-.493Z" class="color288de8 svgShape"/><path fill="#888" d="m325.704 194.599-8.25-8.244a.693.693 0 0 0-.984 0l-8.25 8.244a.706.706 0 0 0-.204.494v6.624a.698.698 0 0 0 1.192.493l7.753-7.753 7.753 7.753a.714.714 0 0 0 .496.205.733.733 0 0 0 .267-.053.702.702 0 0 0 .431-.645v-6.624a.705.705 0 0 0-.204-.494Z" class="color288de8 svgShape"/><path fill="#888" d="m325.704 210.022-8.25-8.247a.695.695 0 0 0-.984 0l-8.25 8.247a.698.698 0 0 0 .988.987l7.753-7.754 7.753 7.754a.699.699 0 0 0 .99-.987Z" class="color288de8 svgShape"/><path fill="#888" d="m325.704 218.159-8.25-8.247a.694.694 0 0 0-.984 0l-8.25 8.247a.699.699 0 0 0 .988.987l7.753-7.753 7.753 7.753a.699.699 0 0 0 .99-.987zm0 10.814-8.25-8.248a.694.694 0 0 0-.984 0l-8.25 8.248a.704.704 0 0 0-.204.493v6.626a.698.698 0 0 0 1.192.492l7.753-7.756 7.753 7.756a.699.699 0 0 0 1.194-.492v-6.626a.703.703 0 0 0-.204-.493z" class="color288de8 svgShape"/><path fill="#888" d="m325.704 240.497-8.25-8.243a.694.694 0 0 0-.984 0l-8.25 8.243a.707.707 0 0 0-.204.494v6.624a.697.697 0 0 0 .431.645.705.705 0 0 0 .761-.151l7.753-7.754 7.753 7.754a.701.701 0 0 0 .763.15.699.699 0 0 0 .431-.644v-6.624a.705.705 0 0 0-.204-.494Z" class="color288de8 svgShape"/><path fill="#888" d="m325.704 255.921-8.25-8.248a.696.696 0 0 0-.984 0l-8.25 8.248a.698.698 0 0 0 .988.986l7.753-7.752 7.753 7.752a.698.698 0 0 0 .99-.986Z" class="color288de8 svgShape"/><path fill="#888" d="m325.704 264.058-8.25-8.249a.696.696 0 0 0-.984 0l-8.25 8.249a.698.698 0 1 0 .988.986l7.753-7.752 7.753 7.752a.699.699 0 0 0 .99-.986zm0 10.813-8.25-8.248a.694.694 0 0 0-.984 0l-8.25 8.248a.703.703 0 0 0-.204.493v6.626a.698.698 0 0 0 1.192.494l7.753-7.758 7.753 7.758a.7.7 0 0 0 1.194-.494v-6.626a.701.701 0 0 0-.204-.493z" class="color288de8 svgShape"/><path fill="#888" d="m325.704 286.396-8.25-8.243a.693.693 0 0 0-.984 0l-8.25 8.243a.708.708 0 0 0-.204.494v6.624a.697.697 0 0 0 .431.644.704.704 0 0 0 .761-.15l7.753-7.754 7.753 7.754a.701.701 0 0 0 .763.15.7.7 0 0 0 .431-.644v-6.624a.706.706 0 0 0-.204-.494Z" class="color288de8 svgShape"/><path fill="#888" d="m325.704 301.819-8.25-8.247a.696.696 0 0 0-.984 0l-8.25 8.247a.698.698 0 0 0 .988.987l7.753-7.754 7.753 7.754a.699.699 0 0 0 .99-.987Z" class="color288de8 svgShape"/><path fill="#888" d="m325.704 309.956-8.25-8.248a.695.695 0 0 0-.984 0l-8.25 8.248a.699.699 0 0 0 .988.987l7.753-7.753 7.753 7.753a.699.699 0 0 0 .99-.987zm0 10.813-8.25-8.247a.695.695 0 0 0-.984 0l-8.25 8.247a.706.706 0 0 0-.204.494v6.626a.699.699 0 0 0 1.192.493l7.753-7.758 7.753 7.758a.7.7 0 0 0 1.194-.493v-6.626a.705.705 0 0 0-.204-.494z" class="color288de8 svgShape"/><path fill="#888" d="m325.704 332.294-8.25-8.243a.693.693 0 0 0-.984 0l-8.25 8.243a.707.707 0 0 0-.204.494v6.624a.7.7 0 0 0 1.192.494l7.753-7.754 7.753 7.754a.715.715 0 0 0 .496.204.701.701 0 0 0 .698-.698v-6.624a.705.705 0 0 0-.204-.494Z" class="color288de8 svgShape"/><path fill="#888" d="m325.704 347.718-8.25-8.248a.694.694 0 0 0-.984 0l-8.25 8.248a.698.698 0 0 0 .988.986l7.753-7.753 7.753 7.753a.698.698 0 0 0 .99-.986Z" class="color288de8 svgShape"/><path fill="#888" d="m325.704 355.854-8.25-8.247a.694.694 0 0 0-.984 0l-8.25 8.247a.699.699 0 0 0 .988.988l7.753-7.754 7.753 7.754a.699.699 0 0 0 .99-.988Z" class="color288de8 svgShape"/><path fill="#2f2f2f" d="m367.13 153.93-32.422-18.72a3.068 3.068 0 0 0-3.07 0l-32.422 18.72a3.068 3.068 0 0 0 0 5.315l32.424 18.708a3.067 3.067 0 0 0 3.067 0l32.423-18.708a3.069 3.069 0 0 0 0-5.316Zm-33.957 17.822-26.284-15.166 26.284-15.176 26.285 15.176Z" class="color2481d7 svgShape"/><path fill="#2f2f2f" d="M365.597 153.518a3.069 3.069 0 0 0-3.07 3.069v200.448l-29.354 16.937-29.354-16.937V156.587a3.069 3.069 0 0 0-6.138 0v202.22a3.068 3.068 0 0 0 1.535 2.658l32.424 18.708a3.07 3.07 0 0 0 3.067 0l32.423-18.708a3.068 3.068 0 0 0 1.535-2.658v-202.22a3.069 3.069 0 0 0-3.068-3.07Z" class="color2481d7 svgShape"/><path fill="#2f2f2f" d="M333.173 172.227a3.069 3.069 0 0 0-3.069 3.068v202.22a3.069 3.069 0 0 0 6.138 0v-202.22a3.069 3.069 0 0 0-3.069-3.068Z" class="color2481d7 svgShape"/><path fill="#9e9e9e" d="M333.173 66.357a28.122 28.122 0 1 0 28.122 28.12 28.123 28.123 0 0 0-28.122-28.12Z" class="color5ba1e1 svgShape"/><path fill="#dedede" d="M333.173 64.823a29.656 29.656 0 1 0 29.657 29.655 29.69 29.69 0 0 0-29.657-29.655Zm-.001 56.243a26.587 26.587 0 1 1 26.589-26.588 26.617 26.617 0 0 1-26.59 26.588Z" class="colorc8dff5 svgShape"/><path fill="#dedede" d="M325.76 81.657a5.409 5.409 0 0 0-.014 10.818h.017a5.414 5.414 0 0 0 5.407-5.406v-.005a5.427 5.427 0 0 0-5.41-5.407zm1.653 7.063a2.323 2.323 0 0 1-1.655.686.023.023 0 0 0-.008 0 2.34 2.34 0 0 1 .01-4.68 2.352 2.352 0 0 1 2.342 2.345 2.316 2.316 0 0 1-.689 1.649zm13.173 7.765a5.408 5.408 0 1 0 5.409 5.4 5.381 5.381 0 0 0-5.41-5.4zm-.002 7.747a2.34 2.34 0 1 1 2.342-2.346 2.347 2.347 0 0 1-2.342 2.346zM322.739 102.743l18.701-18.699 2.17 2.17-18.701 18.7zM333.173 121.09a1.535 1.535 0 0 0-1.534 1.534v33.963a1.534 1.534 0 0 0 3.069 0v-33.963a1.534 1.534 0 0 0-1.535-1.535zm75.086 201.75A13.74 13.74 0 1 0 422 336.579a13.756 13.756 0 0 0-13.741-13.74zm0 24.412a10.672 10.672 0 1 1 10.672-10.673 10.684 10.684 0 0 1-10.672 10.673z" class="colorc8dff5 svgShape"/><path fill="#dedede" d="M408.259 328.926a1.534 1.534 0 0 0-1.535 1.535v6.124a1.534 1.534 0 0 0 3.069 0v-6.124a1.534 1.534 0 0 0-1.534-1.535Z" class="colorc8dff5 svgShape"/><path fill="#dedede" d="M408.259 327.592a1.534 1.534 0 0 0-1.535 1.534v7.46a1.534 1.534 0 0 0 3.069 0v-7.46a1.534 1.534 0 0 0-1.534-1.534Z" class="colorc8dff5 svgShape"/><path fill="#dedede" d="M413.092 335.05h-4.837a1.534 1.534 0 0 0 0 3.068h4.837a1.534 1.534 0 1 0 0-3.069Z" class="colorc8dff5 svgShape"/><path fill="#dedede" d="M408.259 334.401a2.178 2.178 0 1 0 2.178 2.178 2.18 2.18 0 0 0-2.178-2.178Zm0 3.07a.89.89 0 1 1 .89-.892.892.892 0 0 1-.89.891Z" class="colorc8dff5 svgShape"/></svg>