<svg xmlns="http://www.w3.org/2000/svg" fill-rule="evenodd" clip-rule="evenodd" image-rendering="optimizeQuality" shape-rendering="geometricPrecision" text-rendering="geometricPrecision" viewBox="0 0 13.63 13.63"><polygon fill="none" points="0 0 13.63 0 13.63 13.63 0 13.63"/><polygon fill="#525252" fill-rule="nonzero" points="9.18 4.21 10.59 0 7.11 0 6.65 1.59 7.61 4.21" class="color525252 svgShape"/><polygon fill="#2f2f2f" fill-rule="nonzero" points="6.06 0 1.95 0 3.68 4.21 5.28 4.21 7.61 4.21" class="color1c1c1c svgShape"/><path fill="#5d5d5d" fill-rule="nonzero" d="M10.47 9.41c0,2.33 -1.89,4.22 -4.22,4.22 -2.34,0 -4.22,-1.89 -4.22,-4.22 0,-2.33 1.88,-4.22 4.22,-4.22 2.33,0 4.22,1.89 4.22,4.22z" class="colorbb000e svgShape"/><path fill="gray" fill-rule="nonzero" d="M9.61 9.35c0,1.86 -1.5,3.37 -3.36,3.37 -1.86,0 -3.37,-1.51 -3.37,-3.37 0,-1.86 1.51,-3.37 3.37,-3.37 1.86,0 3.36,1.51 3.36,3.37z" class="colore31c25 svgShape"/><path fill="#fff" d="M7.9 11.67l-0.38 -1.65c-0.01,-0.04 0,-0.08 0.04,-0.1l1.27 -1.12c0.04,-0.03 0.05,-0.07 0.04,-0.11 -0.02,-0.05 -0.05,-0.08 -0.1,-0.08l-1.69 -0.15c-0.04,-0.01 -0.07,-0.03 -0.09,-0.07l-0.66 -1.56c-0.02,-0.04 -0.06,-0.07 -0.1,-0.07 -0.05,0 -0.08,0.03 -0.1,0.07l-0.67 1.56c-0.02,0.04 -0.05,0.06 -0.09,0.06l-1.69 0.15c-0.04,0.01 -0.08,0.04 -0.09,0.08 -0.02,0.04 0,0.09 0.03,0.12l1.27 1.11c0.03,0.03 0.05,0.07 0.04,0.11l-0.38 1.65c-0.01,0.04 0,0.09 0.04,0.11 0.04,0.03 0.08,0.03 0.12,0.01l1.46 -0.87c0.03,-0.02 0.07,-0.02 0.11,0l1.45 0.87c0.04,0.03 0.09,0.02 0.12,0 0.04,-0.03 0.06,-0.07 0.05,-0.12z" class="colorffffff svgShape"/><path fill="none" d="M4.42 4.76l0 0.85c0.55,-0.27 1.17,-0.42 1.83,-0.42 0.8,0 1.54,0.22 2.18,0.61l0 -1.04 -4.01 0z"/><path fill="gray" fill-rule="nonzero" d="M4.42 4.76l4.01 0 0 1.04c0.27,0.16 0.52,0.36 0.75,0.58l0 -2.17 -5.51 0 0 1.86c0.23,-0.18 0.48,-0.33 0.75,-0.46l0 -0.85z" class="colore31c25 svgShape"/><path fill="gray" d="M11.31 4.23l-.27.72c-.02.05-.07.08-.12.09l-.81.05c-.06 0-.1.04-.12.09-.02.06 0 .11.05.15l.61.49c.05.03.07.08.05.14l-.2.75c-.02.06 0 .12.05.15.05.03.11.03.16 0l.65-.48c.04-.03.11-.03.15 0l.66.48c.04.03.1.03.15 0 .05-.03.07-.09.05-.15l-.2-.75c-.01-.06 0-.11.05-.14l.62-.49c.04-.04.06-.09.04-.15-.02-.05-.06-.09-.12-.09l-.81-.05c-.05-.01-.1-.04-.12-.09l-.27-.72c-.02-.06-.07-.09-.12-.09-.06 0-.11.03-.13.09zM13.12 3.54c-.07-.06-.19-.06-.25.02l-.59.67c-.06.07-.05.19.02.25.07.07.19.06.25-.01l.59-.68c.06-.07.05-.18-.02-.25zM10.53 4.48c.07-.07.07-.19.01-.26l-.39-.39c-.07-.07-.18-.07-.25 0-.07.06-.07.18-.01.25l.39.39c.07.07.18.07.25.01zM13.56 6.39c.04-.09 0-.19-.09-.23l-.51-.23c-.09-.04-.19 0-.23.09-.04.09 0 .19.08.23l.51.23c.09.04.19 0 .24-.09zM2.99 4.9c.02-.02.02-.05.01-.07-.01-.02-.03-.03-.06-.03l-.95.06c-.03 0-.05-.01-.06-.03l-.5-.81c-.02-.02-.04-.04-.07-.03-.02 0-.04.02-.05.04l-.23.93c-.01.02-.03.04-.05.04l-.93.23c-.02.01-.04.03-.04.05-.01.03 0 .05.03.07l.8.51c.02.01.03.03.03.05l-.07.96c0 .02.01.04.04.06.02.01.04 0 .06-.01l.74-.61c.02-.01.04-.02.06-.01l.89.36c.02.01.05 0 .06-.01.02-.02.03-.05.02-.07l-.35-.89c-.01-.02-.01-.04.01-.06l.61-.73z" class="colore31c25 svgShape"/></svg>