<svg xmlns="http://www.w3.org/2000/svg" enable-background="new 0 0 64 64" viewBox="0 0 64 64"><path fill="#c2c2c2" d="M13.05,45.57h-6v-8c0-1.1,0.9-2,2-2h4c1.1,0,2,0.9,2,2v6C15.05,44.68,14.15,45.57,13.05,45.57z" class="colorf89c8d svgShape"/><rect width="4" height="5" x="9.05" y="30.57" fill="#c2c2c2" class="colorf89c8d svgShape"/><polygon fill="#818181" points="47.55 1.57 51.41 9.4 60.05 10.65 53.8 16.75 55.27 25.35 47.55 21.29 39.82 25.35 41.3 16.75 35.05 10.65 43.68 9.4" class="colorf9e109 svgShape"/><polygon fill="#818181" points="54.05 29.28 55.9 33.04 60.05 33.64 57.05 36.56 57.75 40.69 54.05 38.74 50.34 40.69 51.05 36.56 48.05 33.64 52.19 33.04" class="colorf9e109 svgShape"/><path fill="#acacac" d="M54.05 29.28l-.6 4.05c-.23 1.58 1.39 2.79 2.84 2.1l3.76-1.79-3 2.92.71 4.13-3.71-1.95-3.71 1.95.71-4.13-3-2.92 4.15-.6L54.05 29.28zM47.55 1.57l-1.41 10.42c-.32 2.35 2.08 4.12 4.23 3.13l9.68-4.46-6.25 6.09 1.48 8.6-7.73-4.06-7.73 4.06 1.48-8.6-6.25-6.09 8.64-1.26L47.55 1.57z" class="colorefc96a svgShape"/><path fill="#bcbcbc" d="M49.05,59.57h-30v-12c0-4.42,3.58-8,8-8h14c4.42,0,8,3.58,8,8V59.57z" class="color84d2f4 svgShape"/><path fill="#a1a1a1" d="M40.05,56.57c-6.63,0-12-5.37-12-12c0-1.29,0.31-2.5,0.85-3.58c0.98,0.37,2.04,0.58,3.15,0.58
	c2.14,0,4.09-0.76,5.63-2H27.05c-4.42,0-8,3.58-8,8v12h30v-3H40.05z" class="color57b7eb svgShape"/><path fill="#f0f0f0" d="M34.05,44.57L34.05,44.57c-2.21,0-4-1.79-4-4v-4h8v4C38.05,42.78,36.25,44.57,34.05,44.57z" class="colorfffbe1 svgShape"/><rect width="6" height="8" x="19.05" y="51.57" fill="#fff" class="colorffffff svgShape"/><rect width="6" height="8" x="43.05" y="51.57" fill="#f0f0f0" class="colorfffbe1 svgShape"/><polygon fill="#f0f0f0" points="21.35 59.57 14.35 59.57 9.35 50.57 15.35 50.57" class="colorfffbe1 svgShape"/><path fill="#f0f0f0" d="M15.35,50.57H9.63c-0.83,0-1.65-0.26-2.32-0.75l-4.48-3.2c-0.82-0.59-1.03-1.72-0.47-2.57l0,0
	c0.56-0.83,1.67-1.08,2.53-0.57l3.47,2.08h2C13.11,45.57,15.35,47.81,15.35,50.57L15.35,50.57z" class="colorfffbe1 svgShape"/><path fill="#fff" d="M36.05,43.57c-1.49,0-2.77-0.82-3.46-2.03c2.1-0.12,3.99-0.97,5.46-2.29v-2.68h-8v4c0,2.21,1.79,4,4,4
	c1.05,0,1.99-0.41,2.71-1.07C36.52,43.54,36.29,43.57,36.05,43.57z" class="colorffffff svgShape"/><path fill="#f0f0f0" d="M34.05,39.57L34.05,39.57c-4.97,0-9-4.03-9-9v-9h18v9C43.05,35.54,39.02,39.57,34.05,39.57z" class="colorfffbe1 svgShape"/><path fill="#fff" d="M39.05,37.57c-4.19,0-7.7-2.87-8.7-6.74c0.44-0.64,0.7-1.42,0.7-2.26v-2H30.6c0.69-1.19,1.97-2,3.45-2h9v-3h-18
	v9c0,4.97,4.03,9,9,9c2.16,0,4.15-0.76,5.7-2.04C39.51,37.56,39.28,37.57,39.05,37.57z" class="colorffffff svgShape"/><path fill="gray" d="M35.05,28.57c0,2.21,1.79,4,4,4c2.21,0,4-1.79,4-4v-2h-8V28.57z" class="colorfcbc04 svgShape"/><path fill="#bcbcbc" d="M40.05 31.57L40.05 31.57c-2.21 0-4-1.79-4-4v-2h8v2C44.05 29.78 42.25 31.57 40.05 31.57zM28.05 31.57L28.05 31.57c-2.21 0-4-1.79-4-4v-2h8v2C32.05 29.78 30.25 31.57 28.05 31.57z" class="color84d2f4 svgShape"/><path fill="#a1a1a1" d="M24.05 25.57v2c0 2.21 1.79 4 4 4 .85 0 1.63-.27 2.28-.72l-5.28-5.28H24.05zM36.05 25.57v2c0 2.21 1.79 4 4 4 .85 0 1.63-.27 2.28-.72l-5.28-5.28H36.05zM43.05 21.57h-17c-3.31 0-6-2.69-6-6v-4h13C38.57 11.57 43.05 16.05 43.05 21.57L43.05 21.57z" class="color57b7eb svgShape"/><path fill="#8d8d8d" d="M35.05,19.57c-3.31,0-6-2.69-6-6v-2h-9v4c0,3.31,2.69,6,6,6h17c0-0.68-0.07-1.35-0.2-2H35.05z" class="color4891d3 svgShape"/><path fill="#fff" d="M45.05,56.57c0-1.66,1.34-3,3-3h1v-2h-6v8h2V56.57z" class="colorffffff svgShape"/><path fill="#8a8a8a" d="M29.43 50.15l-.38.06.97.94C29.8 50.83 29.61 50.49 29.43 50.15zM31.49 52.98l-.53 3.1 2.65-1.39C32.84 54.2 32.13 53.63 31.49 52.98z" class="colore59730 svgShape"/><path fill="#f0f0f0" d="M23.05,56.57c0-1.66-1.34-3-3-3h-1v-2h6v8h-2V56.57z" class="colorfffbe1 svgShape"/><path fill="#fff" d="M10.63 48.57c-.83 0-1.65-.26-2.32-.75l-4.48-3.2c-.41-.3-.67-.73-.76-1.19-.28.14-.53.35-.72.63-.56.84-.35 1.98.47 2.57l4.48 3.2c.68.48 1.49.75 2.32.75h5.72c0-.71-.15-1.39-.42-2H10.63zM15.72 51.13l-.37-.55h-6l5 9h3l-2.52-4.54C14.04 53.61 14.54 51.96 15.72 51.13z" class="colorffffff svgShape"/><path fill="#a3a3a3" d="M9.05 37.57v-2c-1.1 0-2 .9-2 2v8h6c1.1 0 2-.9 2-2C11.73 43.57 9.05 40.89 9.05 37.57zM11.05 31.57v-1h-2v5h4v-1.18C11.88 33.98 11.05 32.88 11.05 31.57z" class="colorf8664f svgShape"/><path fill="#2f2f2f" d="M60.19,32.65l-3.63-0.53l-1.62-3.29c-0.34-0.68-1.46-0.68-1.79,0l-1.62,3.29l-3.63,0.53
	c-0.38,0.05-0.69,0.32-0.81,0.68c-0.12,0.36-0.02,0.76,0.25,1.03l2.62,2.56l-0.62,3.61c-0.06,0.38,0.09,0.75,0.4,0.98
	c0.31,0.22,0.72,0.25,1.05,0.08l3.24-1.71l3.24,1.71c0.15,0.08,0.31,0.11,0.47,0.11c0.21,0,0.41-0.06,0.59-0.19
	c0.31-0.22,0.46-0.6,0.4-0.98l-0.62-3.61l2.62-2.56c0.27-0.27,0.37-0.66,0.25-1.03C60.88,32.97,60.57,32.7,60.19,32.65z
	 M56.35,35.85c-0.24,0.23-0.34,0.56-0.29,0.89l0.37,2.13l-1.91-1.01c-0.15-0.08-0.31-0.11-0.47-0.11c-0.16,0-0.32,0.04-0.47,0.11
	l-1.91,1.01l0.37-2.13c0.06-0.32-0.05-0.66-0.29-0.89l-1.55-1.51l2.14-0.31c0.33-0.05,0.61-0.25,0.75-0.55l0.96-1.94L55,33.48
	c0.15,0.3,0.43,0.5,0.75,0.55l2.14,0.31L56.35,35.85z" class="color39519d svgShape"/><path fill="#2f2f2f" d="M41.05,38.57h-1.03c2.44-1.83,4.03-4.73,4.03-8v-0.03c0.62-0.83,1-1.85,1-2.97v-2c0-0.55-0.45-1-1-1v-0.32
	l3.5-1.84l7.26,3.82c0.15,0.08,0.31,0.11,0.47,0.11c0.21,0,0.41-0.06,0.59-0.19c0.31-0.22,0.46-0.6,0.4-0.98l-1.39-8.08l5.87-5.72
	c0.27-0.27,0.37-0.66,0.25-1.03c-0.12-0.36-0.43-0.63-0.81-0.68l-8.12-1.18l-3.63-7.35c-0.34-0.68-1.46-0.68-1.79,0l-3.63,7.35
	l-3.46,0.5c-0.55,0.08-0.92,0.59-0.85,1.13c0.08,0.55,0.59,0.92,1.13,0.85l3.98-0.58c0.33-0.05,0.61-0.25,0.75-0.55l2.97-6.01
	l2.97,6.01c0.15,0.3,0.43,0.5,0.75,0.55l6.63,0.96l-4.8,4.68c-0.24,0.23-0.34,0.56-0.29,0.89l1.13,6.61l-5.93-3.12
	c-0.29-0.15-0.64-0.15-0.93,0L44.05,22v-0.43c0-6.07-4.93-11-11-11c-0.55,0-1,0.45-1,1c0,0.55,0.45,1,1,1c4.62,0,8.45,3.51,8.94,8
	h-6.94c-2.76,0-5-2.24-5-5c0-0.55-0.45-1-1-1c-0.55,0-1,0.45-1,1c0,1.96,0.81,3.73,2.11,5h-0.11c-2.76,0-5-2.24-5-5
	c0-0.55-0.45-1-1-1c-0.55,0-1,0.45-1,1c0,1.91,0.77,3.64,2.01,4.9c-2.28-0.46-4.01-2.48-4.01-4.9v-3h8c0.55,0,1-0.45,1-1
	c0-0.55-0.45-1-1-1h-9c-0.55,0-1,0.45-1,1v4c0,3.86,3.14,7,7,7h16v2h-18c-0.55,0-1,0.45-1,1v2c0,1.12,0.38,2.14,1,2.97v0.03
	c0,3.69,2.02,6.91,5,8.65v1.35c0,2.76,2.24,5,5,5c2.76,0,5-2.24,5-5h2c3.86,0,7,3.14,7,7v3h-5c-0.55,0-1,0.45-1,1v8
	c0,0.55,0.45,1,1,1c0.55,0,1-0.45,1-1v-7h4v7c0,0.55,0.45,1,1,1c0.55,0,1-0.45,1-1v-12C50.05,42.61,46.01,38.57,41.05,38.57z
	 M42.35,29.47l-2.89-2.89h3.59v1C43.05,28.29,42.78,28.95,42.35,29.47z M37.05,26.99l3.53,3.53c-0.17,0.03-0.35,0.05-0.53,0.05
	c-1.65,0-3-1.35-3-3V26.99z M25.05,27.57v-0.59l3.53,3.53c-0.17,0.03-0.35,0.05-0.53,0.05C26.39,30.57,25.05,29.23,25.05,27.57z
	 M30.35,29.47l-2.89-2.89h3.59v1C31.05,28.29,30.78,28.95,30.35,29.47z M26.22,32.22c0.57,0.22,1.18,0.36,1.83,0.36
	c2.76,0,5-2.24,5-5v-1h2v1c0,2.76,2.24,5,5,5c0.65,0,1.26-0.13,1.83-0.36c-0.76,3.63-3.98,6.36-7.83,6.36
	C30.2,38.57,26.98,35.84,26.22,32.22z M34.05,43.57c-1.65,0-3-1.35-3-3v-0.46c0.95,0.3,1.95,0.46,3,0.46c1.04,0,2.05-0.16,3-0.46
	v0.46C37.05,42.23,35.7,43.57,34.05,43.57z" class="color39519d svgShape"/><path fill="#2f2f2f" d="M37.6 35.41c.46-.31.58-.93.28-1.39-.31-.46-.93-.58-1.39-.28-1.49.99-3.41.99-4.89 0-.46-.31-1.08-.18-1.39.28-.31.46-.18 1.08.28 1.39 1.08.72 2.32 1.08 3.55 1.08C35.28 36.48 36.52 36.12 37.6 35.41zM25.05 50.57h-5v-3c0-3.15 2.13-5.93 5.17-6.75.53-.14.85-.69.7-1.23-.14-.53-.69-.85-1.23-.7-3.91 1.06-6.65 4.63-6.65 8.68v5.24l-1.71-2.56c-.09-1.59-.79-3.02-1.88-4.04.94-.51 1.59-1.49 1.59-2.63v-6c0-1.3-.84-2.4-2-2.82v-4.18c0-.55-.45-1-1-1h-4c-.55 0-1 .45-1 1v4.18c-1.16.41-2 1.51-2 2.82v5.45L5.4 42.64c-1.32-.79-3.02-.41-3.87.87-.87 1.3-.55 3.03.72 3.94l4.48 3.2c.6.43 1.27.7 1.98.84l4.77 8.58c.18.33.52.51.88.51.16 0 .33-.04.48-.13.48-.27.66-.88.39-1.36l-4.17-7.51h3.77l5.7 8.55c.31.46.93.58 1.39.28.46-.31.58-.93.28-1.39l-2.14-3.21v-3.24h4v7c0 .55.45 1 1 1 .55 0 1-.45 1-1v-8C26.05 51.02 25.6 50.57 25.05 50.57zM10.05 31.57h2v3h-2V31.57zM8.05 37.57c0-.55.45-1 1-1h4c.55 0 1 .45 1 1v6c0 .55-.45 1-1 1H8.63l-.58-.35V37.57zM9.63 49.57c-.63 0-1.23-.19-1.74-.56l-4.48-3.2c-.39-.28-.48-.8-.22-1.2.17-.25.45-.39.73-.39.15 0 .31.04.45.13l3.47 2.08c.16.09.33.14.51.14h2c1.86 0 3.43 1.28 3.87 3H9.63zM39.19 49.22l-2.93-.43-1.31-2.66c-.34-.68-1.46-.68-1.79 0l-1.31 2.66-2.93.43c-.38.05-.69.32-.81.68-.12.36-.02.76.25 1.03l2.12 2.07-.5 2.92c-.06.38.09.75.4.98.31.22.72.25 1.05.08l2.63-1.38 2.63 1.38c.15.08.31.11.47.11.21 0 .41-.06.59-.19.31-.22.46-.6.4-.98l-.5-2.92 2.12-2.07c.27-.27.37-.66.25-1.03C39.88 49.53 39.57 49.27 39.19 49.22zM35.85 51.93c-.24.23-.34.56-.29.89l.25 1.44-1.3-.68c-.15-.08-.31-.11-.47-.11-.16 0-.32.04-.47.11l-1.3.68.25-1.44c.06-.32-.05-.66-.29-.89l-1.05-1.02 1.45-.21c.33-.05.61-.25.75-.55l.65-1.31.65 1.31c.15.3.43.5.75.55l1.45.21L35.85 51.93z" class="color39519d svgShape"/></svg>