<svg xmlns="http://www.w3.org/2000/svg" fill-rule="evenodd" clip-rule="evenodd" image-rendering="optimizeQuality" shape-rendering="geometricPrecision" text-rendering="geometricPrecision" viewBox="0 0 17.14 17.14"><polygon fill="none" points="0 0 17.14 0 17.14 17.14 0 17.14"/><path fill="gray" d="M11.01 17.05l-6.95 -2.41c-0.83,-0.29 -1.27,-1.2 -0.98,-2.03l4.02 -11.54c0.29,-0.83 1.2,-1.27 2.03,-0.98l6.94 2.42c0.83,0.29 1.27,1.2 0.98,2.03l-4.01 11.53c-0.29,0.83 -1.2,1.27 -2.03,0.98z" class="colore31c25 svgShape"/><path fill="#2f2f2f" d="M9.14 17.14l-7.35 0c-0.88,0 -1.6,-0.71 -1.6,-1.59l0 -12.21c0,-0.89 0.72,-1.6 1.6,-1.6l7.35 0c0.88,0 1.6,0.71 1.6,1.6l0 12.21c0,0.88 -0.72,1.59 -1.6,1.59z" class="color1c1c1c svgShape"/><path fill="none" d="M1.72 13.15c-0.17,-0.08 -0.38,-0.1 -0.58,-0.04 -0.42,0.13 -0.66,0.59 -0.53,1.02 0.13,0.42 0.59,0.66 1.02,0.53 0.26,-0.08 0.45,-0.28 0.53,-0.52 -0.16,-0.23 -0.29,-0.48 -0.38,-0.76 -0.02,-0.07 -0.04,-0.15 -0.06,-0.23z"/><path fill="#5d5d5d" fill-rule="nonzero" d="M10.26 9.31l-0.28 -0.9c-0.06,-0.2 -0.27,-0.31 -0.47,-0.25l-2.74 0.85c-0.15,0.05 -0.27,0.18 -0.28,0.33 -0.01,0.28 -0.19,0.53 -0.47,0.62 -0.28,0.08 -0.57,-0.02 -0.74,-0.24 -0.1,-0.12 -0.27,-0.16 -0.41,-0.12 0,0 -1.49,0.48 -1.52,0.49 -1.02,0.41 -1.67,1.38 -1.69,2.44 -0.22,-0.05 -0.45,-0.04 -0.69,0.03 -0.73,0.23 -1.13,1.01 -0.91,1.74 0.23,0.73 1.01,1.13 1.74,0.91 0.33,-0.11 0.6,-0.33 0.77,-0.61 0.68,0.61 1.65,0.85 2.59,0.56 1.42,-0.44 2.22,-1.96 1.77,-3.38 -0.02,-0.07 -0.05,-0.14 -0.07,-0.21l3.23 -1.82c0.15,-0.08 0.23,-0.27 0.17,-0.44zm-8.63 5.35l0 0c-0.43,0.13 -0.89,-0.11 -1.02,-0.53 -0.13,-0.43 0.11,-0.89 0.53,-1.02 0.2,-0.06 0.41,-0.04 0.58,0.04 0.02,0.08 0.04,0.16 0.06,0.23 0.09,0.28 0.22,0.53 0.38,0.76 -0.08,0.24 -0.27,0.44 -0.53,0.52z" class="colorbb000e svgShape"/><path fill="#fff" d="M2.99 13.01c0.23,0.76 1.04,1.18 1.8,0.95 0.75,-0.24 1.18,-1.05 0.94,-1.8 -0.23,-0.76 -1.04,-1.18 -1.8,-0.95 -0.75,0.24 -1.18,1.04 -0.94,1.8z" class="colorffffff svgShape"/><path fill="gray" fill-rule="nonzero" d="M5.1 8.69l-.82-.34c-.1-.04-.21.01-.25.1-.02.05-.02.1 0 .15.02.05.05.08.1.1l.82.35c.03.01.07.01.1.01.07-.01.13-.05.15-.12.02-.04.02-.09 0-.14-.02-.05-.05-.09-.1-.11zM5.3 7.55c-.05-.1-.16-.14-.26-.1-.04.03-.08.06-.1.11-.01.05-.01.1.01.15l.37.81c.01.03.04.05.06.07.03.02.06.03.09.04.04 0 .07 0 .1-.02.1-.04.14-.16.1-.25l-.37-.81zM6.69 7.54c-.09-.06-.21-.03-.27.06l-.45.77c-.02.03-.03.06-.03.09 0 .07.03.13.09.17.03.01.05.02.08.02.02.01.04 0 .07 0 .05-.01.09-.04.11-.09l.46-.76c.06-.09.03-.21-.06-.26z" class="colore31c25 svgShape"/></svg>