<svg xmlns="http://www.w3.org/2000/svg" fill-rule="evenodd" clip-rule="evenodd" image-rendering="optimizeQuality" shape-rendering="geometricPrecision" text-rendering="geometricPrecision" viewBox="0 0 30.92 30.92"><polygon fill="none" points="0 0 30.92 0 30.92 30.92 0 30.92"/><polygon fill="gray" fill-rule="nonzero" points="9.58 11.93 14.13 14.73 10.48 27.84 .37 25.15" class="colore31c25 svgShape"/><polygon fill="#5d5d5d" fill-rule="nonzero" points="20.55 12.66 20.84 24.71 10.48 27.84 14.13 14.73" class="colorbb000e svgShape"/><polygon fill="gray" fill-rule="nonzero" points="30.78 27.37 20.84 24.71 20.55 12.66 26.59 13.93" class="colore31c25 svgShape"/><path fill="#fff" fill-rule="nonzero" d="M7 24.36c-1.37 0-2.07-.82-2.11-.86l.74-.61-.37.3.36-.3c.03.03.79.87 2.38.35l.3.9c-.49.16-.92.22-1.3.22zM9.37 23.66l-.46-.83c.61-.35 1.25-.84 1.92-1.48l.66.69c-.73.69-1.44 1.23-2.12 1.62zm2.9-2.37l0 0-.64-.7c.46-.43.95-.83 1.45-1.19l.56.77c-.47.34-.93.72-1.37 1.12zM21.97 24.73c-.67-.24-1.24-.64-1.68-1.19l.74-.59c.33.4.75.7 1.26.88l-.32.9zm-2.3-2.24l0 0c-.09-.22-.17-.45-.23-.69-.2-.74-.38-1.28-.59-1.69l.86-.42c.23.47.43 1.06.65 1.86.05.21.12.4.19.57l-.88.37zm-5.15-2.92l0 0-.5-.8c.31-.2.61-.36.88-.5 1.1-.54 2.4-.56 3.44-.05.23.11.45.26.64.44l-.65.69c-.13-.11-.26-.21-.41-.28-.78-.38-1.76-.35-2.6.05-.25.13-.52.28-.8.45zM23.55 24.99c-.12 0-.24 0-.38-.01l.07-.95c.57.04.99-.05 1-.05-.01 0 .82-.21 1.04-.92l.91.27c-.38 1.25-1.69 1.57-1.75 1.58-.02.01-.38.08-.89.08z" class="colorffffff svgShape"/><path fill="#2f2f2f" d="M20.81 11.71l-4.3 6.34c-0.1,0.15 -0.26,0.24 -0.44,0.24 -0.18,0 -0.34,-0.09 -0.44,-0.24l-4.3 -6.34c-0.56,-0.87 -0.88,-1.91 -0.88,-3.01 0,-3.11 2.52,-5.62 5.62,-5.62 3.1,0 5.62,2.51 5.62,5.62 0,1.1 -0.32,2.14 -0.88,3.01z" class="color525252 svgShape"/><path fill="#fff" d="M16.07 4.59c-2.27,0 -4.11,1.84 -4.11,4.11 0,2.27 1.84,4.11 4.11,4.11 2.27,0 4.11,-1.84 4.11,-4.11 0,-2.27 -1.84,-4.11 -4.11,-4.11z" class="colorffffff svgShape"/><path fill="#5d5d5d" fill-rule="nonzero" d="M17.6 10.32c0,0.07 0,0.12 -0.01,0.17 -0.01,0.05 -0.01,0.08 -0.03,0.11 -0.01,0.03 -0.02,0.05 -0.04,0.07 -0.02,0.01 -0.04,0.02 -0.06,0.02l-2.54 0c-0.05,0 -0.09,-0.01 -0.13,-0.02 -0.04,-0.01 -0.07,-0.03 -0.09,-0.05 -0.02,-0.03 -0.04,-0.07 -0.05,-0.12 -0.01,-0.05 -0.01,-0.11 -0.01,-0.19 0,-0.08 0,-0.14 0.01,-0.19 0,-0.06 0.02,-0.1 0.03,-0.15 0.02,-0.04 0.05,-0.08 0.07,-0.12 0.03,-0.04 0.07,-0.08 0.12,-0.13l0.76 -0.82c0.15,-0.16 0.28,-0.3 0.37,-0.43 0.09,-0.14 0.16,-0.25 0.22,-0.36 0.05,-0.11 0.09,-0.21 0.1,-0.3 0.02,-0.09 0.03,-0.18 0.03,-0.26 0,-0.08 -0.01,-0.15 -0.03,-0.21 -0.03,-0.07 -0.06,-0.13 -0.11,-0.18 -0.04,-0.05 -0.1,-0.09 -0.17,-0.12 -0.07,-0.03 -0.16,-0.04 -0.25,-0.04 -0.14,0 -0.26,0.02 -0.36,0.05 -0.1,0.04 -0.19,0.07 -0.27,0.11 -0.08,0.05 -0.15,0.09 -0.2,0.12 -0.05,0.04 -0.09,0.05 -0.12,0.05 -0.02,0 -0.04,0 -0.05,-0.02 -0.02,-0.01 -0.03,-0.03 -0.04,-0.06 -0.01,-0.04 -0.02,-0.08 -0.02,-0.13 -0.01,-0.06 -0.01,-0.12 -0.01,-0.2 0,-0.05 0,-0.09 0,-0.13 0.01,-0.04 0.01,-0.07 0.02,-0.09 0.01,-0.03 0.02,-0.05 0.03,-0.07 0.01,-0.02 0.03,-0.04 0.06,-0.07 0.02,-0.03 0.08,-0.06 0.15,-0.1 0.08,-0.05 0.17,-0.09 0.28,-0.13 0.12,-0.04 0.24,-0.07 0.37,-0.1 0.14,-0.03 0.28,-0.04 0.42,-0.04 0.23,0 0.43,0.03 0.61,0.09 0.17,0.06 0.31,0.14 0.42,0.24 0.12,0.1 0.2,0.23 0.26,0.37 0.05,0.14 0.08,0.29 0.08,0.46 0,0.14 -0.01,0.28 -0.04,0.42 -0.03,0.14 -0.08,0.29 -0.17,0.45 -0.09,0.16 -0.21,0.34 -0.37,0.53 -0.15,0.2 -0.36,0.42 -0.62,0.68l-0.52 0.53 1.75 0c0.02,0 0.04,0.01 0.06,0.02 0.02,0.01 0.03,0.03 0.05,0.06 0.01,0.03 0.02,0.07 0.03,0.11 0.01,0.05 0.01,0.11 0.01,0.17z" class="colorbb000e svgShape"/><path fill="#2f2f2f" d="M9.03 17.89l-3.75 5.53c-0.09,0.13 -0.23,0.2 -0.39,0.2 -0.15,0 -0.29,-0.07 -0.38,-0.2l-3.75 -5.53c-0.48,-0.76 -0.76,-1.66 -0.76,-2.62 0,-2.71 2.19,-4.9 4.89,-4.9 2.71,0 4.9,2.19 4.9,4.9 0,0.96 -0.28,1.86 -0.76,2.62z" class="color525252 svgShape"/><path fill="#fff" d="M4.89 11.69c-1.97,0 -3.58,1.6 -3.58,3.58 0,1.98 1.61,3.58 3.58,3.58 1.98,0 3.59,-1.6 3.59,-3.58 0,-1.98 -1.61,-3.58 -3.59,-3.58z" class="colorffffff svgShape"/><path fill="#5d5d5d" fill-rule="nonzero" d="M6.25 16.97c0,0.07 0,0.12 -0.01,0.16 0,0.05 -0.01,0.08 -0.03,0.11 -0.01,0.03 -0.02,0.05 -0.04,0.06 -0.01,0.01 -0.03,0.01 -0.05,0.01l-2.44 0c-0.02,0 -0.03,0 -0.05,-0.01 -0.02,-0.01 -0.03,-0.03 -0.04,-0.06 -0.02,-0.03 -0.03,-0.06 -0.03,-0.11 -0.01,-0.04 -0.01,-0.09 -0.01,-0.16 0,-0.06 0,-0.12 0.01,-0.16 0,-0.05 0.01,-0.08 0.02,-0.11 0.02,-0.03 0.03,-0.05 0.05,-0.06 0.01,-0.01 0.03,-0.02 0.05,-0.02l0.82 0 0 -2.87 -0.71 0.39c-0.05,0.02 -0.09,0.04 -0.12,0.05 -0.04,0 -0.06,-0.01 -0.08,-0.02 -0.02,-0.02 -0.04,-0.06 -0.04,-0.11 -0.01,-0.04 -0.01,-0.11 -0.01,-0.2 0,-0.05 0,-0.1 0,-0.13 0,-0.04 0.01,-0.07 0.02,-0.09 0.01,-0.03 0.02,-0.05 0.03,-0.06 0.02,-0.02 0.04,-0.04 0.07,-0.05l0.95 -0.62c0.01,-0.01 0.02,-0.02 0.04,-0.02 0.02,-0.01 0.04,-0.01 0.07,-0.01 0.02,-0.01 0.06,-0.01 0.11,-0.01 0.04,0 0.1,0 0.17,0 0.08,0 0.15,0 0.21,0 0.05,0.01 0.09,0.01 0.12,0.02 0.03,0.01 0.04,0.02 0.05,0.03 0.01,0.01 0.02,0.03 0.02,0.05l0 3.65 0.72 0c0.02,0 0.04,0.01 0.05,0.02 0.02,0.01 0.04,0.03 0.05,0.06 0.01,0.03 0.02,0.06 0.02,0.11 0.01,0.04 0.01,0.1 0.01,0.16z" class="colorbb000e svgShape"/><path fill="#2f2f2f" d="M30.16 17.89l-3.75 5.53c-0.09,0.13 -0.23,0.2 -0.38,0.2 -0.16,0 -0.3,-0.07 -0.39,-0.2l-3.75 -5.53c-0.48,-0.76 -0.76,-1.66 -0.76,-2.62 0,-2.71 2.19,-4.9 4.9,-4.9 2.7,0 4.89,2.19 4.89,4.9 0,0.96 -0.28,1.86 -0.76,2.62z" class="color525252 svgShape"/><path fill="#fff" d="M26.03 11.69c-1.98,0 -3.59,1.6 -3.59,3.58 0,1.98 1.61,3.58 3.59,3.58 1.97,0 3.58,-1.6 3.58,-3.58 0,-1.98 -1.61,-3.58 -3.58,-3.58z" class="colorffffff svgShape"/><path fill="#5d5d5d" fill-rule="nonzero" d="M27.66 16.18c0,0.22 -0.04,0.42 -0.12,0.59 -0.09,0.17 -0.2,0.31 -0.35,0.43 -0.16,0.12 -0.34,0.2 -0.54,0.26 -0.21,0.06 -0.44,0.09 -0.69,0.09 -0.15,0 -0.29,-0.01 -0.42,-0.03 -0.14,-0.02 -0.25,-0.05 -0.35,-0.08 -0.1,-0.03 -0.19,-0.06 -0.25,-0.1 -0.07,-0.03 -0.11,-0.06 -0.13,-0.08 -0.02,-0.01 -0.04,-0.03 -0.05,-0.06 -0.01,-0.02 -0.02,-0.05 -0.03,-0.08 0,-0.03 -0.01,-0.07 -0.01,-0.11 -0.01,-0.05 -0.01,-0.11 -0.01,-0.17 0,-0.11 0.01,-0.19 0.03,-0.23 0.02,-0.04 0.04,-0.06 0.08,-0.06 0.02,0 0.06,0.01 0.12,0.04 0.05,0.03 0.12,0.07 0.21,0.1 0.09,0.04 0.19,0.07 0.3,0.1 0.12,0.03 0.25,0.05 0.4,0.05 0.13,0 0.24,-0.02 0.33,-0.05 0.1,-0.03 0.18,-0.07 0.25,-0.12 0.06,-0.05 0.11,-0.12 0.15,-0.2 0.03,-0.07 0.05,-0.16 0.05,-0.25 0,-0.1 -0.02,-0.19 -0.06,-0.28 -0.04,-0.08 -0.1,-0.15 -0.18,-0.21 -0.08,-0.05 -0.18,-0.1 -0.3,-0.13 -0.12,-0.03 -0.26,-0.05 -0.42,-0.05l-0.38 0c-0.03,0 -0.06,0 -0.08,-0.01 -0.02,-0.01 -0.04,-0.03 -0.05,-0.05 -0.01,-0.03 -0.02,-0.06 -0.03,-0.1 0,-0.05 -0.01,-0.11 -0.01,-0.18 0,-0.06 0.01,-0.12 0.01,-0.16 0.01,-0.04 0.02,-0.07 0.03,-0.1 0.01,-0.02 0.03,-0.03 0.05,-0.04 0.02,-0.01 0.04,-0.02 0.07,-0.02l0.38 0c0.13,0 0.25,-0.01 0.35,-0.04 0.11,-0.03 0.19,-0.08 0.26,-0.14 0.07,-0.05 0.12,-0.12 0.16,-0.2 0.04,-0.08 0.06,-0.17 0.06,-0.27 0,-0.07 -0.02,-0.15 -0.04,-0.21 -0.03,-0.07 -0.06,-0.13 -0.11,-0.18 -0.05,-0.05 -0.12,-0.08 -0.19,-0.11 -0.08,-0.03 -0.17,-0.05 -0.28,-0.05 -0.11,0 -0.23,0.02 -0.33,0.06 -0.1,0.03 -0.2,0.07 -0.28,0.11 -0.08,0.05 -0.15,0.08 -0.21,0.12 -0.06,0.04 -0.1,0.06 -0.13,0.06 -0.02,0 -0.04,-0.01 -0.05,-0.02 -0.01,0 -0.02,-0.02 -0.03,-0.04 -0.01,-0.02 -0.02,-0.06 -0.02,-0.1 -0.01,-0.04 -0.01,-0.1 -0.01,-0.17 0,-0.06 0,-0.1 0,-0.14 0.01,-0.04 0.01,-0.07 0.02,-0.09 0,-0.03 0.01,-0.05 0.02,-0.07 0.01,-0.02 0.03,-0.04 0.05,-0.06 0.02,-0.02 0.07,-0.05 0.14,-0.1 0.07,-0.04 0.16,-0.08 0.27,-0.12 0.1,-0.04 0.23,-0.08 0.37,-0.11 0.14,-0.02 0.29,-0.04 0.45,-0.04 0.22,0 0.41,0.03 0.57,0.08 0.17,0.05 0.31,0.12 0.42,0.21 0.11,0.1 0.2,0.21 0.25,0.35 0.06,0.14 0.09,0.29 0.09,0.47 0,0.13 -0.02,0.26 -0.05,0.37 -0.03,0.12 -0.08,0.22 -0.15,0.31 -0.07,0.09 -0.15,0.17 -0.25,0.23 -0.1,0.07 -0.21,0.12 -0.34,0.15l0 0.01c0.15,0.02 0.29,0.06 0.42,0.12 0.12,0.06 0.22,0.13 0.31,0.22 0.08,0.09 0.15,0.2 0.19,0.31 0.05,0.12 0.07,0.24 0.07,0.37z" class="colorbb000e svgShape"/></svg>