<svg xmlns="http://www.w3.org/2000/svg" fill-rule="evenodd" clip-rule="evenodd" image-rendering="optimizeQuality" shape-rendering="geometricPrecision" text-rendering="geometricPrecision" viewBox="0 0 52.7 52.7"><polygon fill="none" points="0 0 52.7 0 52.7 52.7 0 52.7"/><path fill="#525252" d="M47.08 2.51l-11.45 0 -0.21 0 -0.37 0 -24.66 0 -0.69 0 -4.06 0c-0.86,0 -1.57,0.71 -1.57,1.57l0 27.99 16.55 0 0 1.35 11.68 0 0 -1.35 16.35 0 0 -27.99c0,-0.86 -0.7,-1.57 -1.57,-1.57z" class="color525252 svgShape"/><path fill="#2f2f2f" d="M52.66 32.99c-0.09,-0.54 -0.54,-0.92 -1.09,-0.92l-19.58 0c-0.27,0 -0.53,0.1 -0.73,0.28l-0.53 0.5c-0.4,0.36 -0.93,0.57 -1.47,0.57l-5.78 0c-0.55,0 -1.09,-0.21 -1.49,-0.59l-0.51 -0.46c-0.21,-0.19 -0.48,-0.3 -0.76,-0.3l-19.56 0c-0.55,0 -1,0.38 -1.1,0.92 0,0.03 0,0.07 -0.01,0.12 -0.19,2.16 1.5,3.94 3.67,3.94l44.92 0c2.24,0 4.04,-1.83 4.02,-4.06z" class="color1c1c1c svgShape"/><polygon fill="#fff" points="45.83 28.51 6.9 28.51 6.9 4.97 35.42 4.97 35.42 4.97 35.63 4.97 45.83 4.97" class="colorffffff svgShape"/><path fill="gray" d="M8.52 27.29l-0.02 -0.01c-0.19,-0.05 -0.35,-0.12 -0.47,-0.22 -0.12,-0.09 -0.2,-0.22 -0.29,-0.48 -0.09,-0.25 -0.19,-0.64 -0.26,-0.98 -0.08,-0.34 -0.12,-0.64 -0.14,-0.9 -0.02,-0.27 -0.02,-0.49 0.04,-0.66 0.07,-0.18 0.23,-0.32 0.35,-0.35 0.11,-0.04 0.18,-0.02 0.23,-0.03 0.05,-0.01 -0.03,-0.04 -0.03,-0.07l-0.14 -1.97c-0.09,-0.9 0.1,-2.22 0.76,-2.83 0.16,-0.15 0.69,-0.25 0.79,-0.17 -0.1,-0.18 -0.14,-0.44 0.06,-0.71 0.2,-0.28 0.66,-0.82 1.12,-1.03 0.71,-0.31 1.5,-0.55 2.27,-0.48 0.88,0.09 1.73,0.46 2.47,0.94 0.59,0.38 1.1,0.94 1.42,1.57 0.34,0.66 0.45,1.39 0.52,2.19 0.07,0.8 0.01,1.75 -0.11,2.55 0.09,0 0.17,0.02 0.25,0.05 0.17,0.06 0.32,0.18 0.39,0.38 0.07,0.21 0.06,0.51 0.03,0.82 -0.02,0.3 -0.07,0.6 -0.14,0.91 -0.07,0.3 -0.18,0.6 -0.27,0.82 -0.09,0.22 -0.17,0.35 -0.29,0.45 -0.12,0.09 -0.28,0.16 -0.47,0.22 -0.03,0.01 -0.07,0.02 -0.11,0.03l-0.06 0.92c-0.03,0.54 -0.23,1 -0.59,1.4l0 0.86c0,0.23 -0.18,0.41 -0.41,0.41l-2.83 3.05 -2.79 -3.06c-0.23,0 -0.41,-0.18 -0.41,-0.4l0 -0.64 -0.18 -0.18c-0.38,-0.41 -0.59,-0.88 -0.63,-1.44l-0.06 -0.96z" class="colore31c25 svgShape"/><path fill="#fff" d="M13.31 32.93c-0.35,0.34 -0.91,0.35 -1.27,0.02l-2.64 -2.36c-0.15,0.09 -0.28,0.2 -0.39,0.33l-0.74 0.9 4.49 4.26 4.16 -4.26 -0.66 -0.86c0,0 -0.19,-0.21 -0.43,-0.45l-2.52 2.42z" class="colorffffff svgShape"/><path fill="#5d5d5d" d="M12.56 44.42c-3.66,0 -7.32,-0.26 -10.98,-0.76 -0.5,-0.07 -0.9,-0.33 -1.18,-0.79 -0.28,-0.45 -0.36,-0.96 -0.24,-1.49l0.53 -4c0.3,-1.14 0.49,-1.56 0.8,-1.82 1.39,-1.13 4.06,-1.81 5.26,-2.34l0.9 -1.09c0.17,-0.22 0.37,-0.4 0.72,-0.4l4.09 3.75c0.15,0.12 0.37,0.11 0.53,-0.01l3.75 -3.74c0.35,0 0.55,0.18 0.72,0.4l0.9 1.09c1.2,0.53 3.87,1.21 5.26,2.34 0.31,0.26 0.5,0.68 0.8,1.82l0.53 4c0.13,0.53 0.04,1.04 -0.24,1.49 -0.28,0.46 -0.68,0.72 -1.18,0.79 -3.66,0.5 -7.32,0.76 -10.97,0.76z" class="colorbb000e svgShape"/><path fill="gray" d="M36.13 27.29l-0.01 -0.01c-0.19,-0.05 -0.35,-0.12 -0.47,-0.22 -0.12,-0.09 -0.2,-0.22 -0.29,-0.48 -0.1,-0.25 -0.2,-0.64 -0.27,-0.98 -0.07,-0.34 -0.12,-0.64 -0.14,-0.9 -0.02,-0.27 -0.01,-0.49 0.05,-0.66 0.06,-0.18 0.23,-0.32 0.34,-0.35 0.12,-0.04 0.18,-0.02 0.23,-0.03 0.05,-0.01 -0.02,-0.04 -0.03,-0.07l-0.14 -1.97c-0.09,-0.9 0.11,-2.22 0.77,-2.83 0.15,-0.15 0.69,-0.25 0.78,-0.17 -0.09,-0.18 -0.14,-0.44 0.06,-0.71 0.21,-0.28 0.66,-0.82 1.12,-1.03 0.71,-0.31 1.51,-0.55 2.28,-0.48 0.87,0.09 1.72,0.46 2.46,0.94 0.59,0.38 1.1,0.94 1.42,1.57 0.35,0.66 0.45,1.39 0.52,2.19 0.07,0.8 0.01,1.75 -0.1,2.55 0.09,0 0.17,0.02 0.24,0.05 0.17,0.06 0.32,0.18 0.39,0.38 0.07,0.21 0.06,0.51 0.04,0.82 -0.03,0.3 -0.07,0.6 -0.15,0.91 -0.07,0.3 -0.17,0.6 -0.26,0.82 -0.09,0.22 -0.17,0.35 -0.29,0.45 -0.12,0.09 -0.28,0.16 -0.47,0.22 -0.04,0.01 -0.08,0.02 -0.11,0.03l-0.06 0.92c-0.04,0.54 -0.23,1 -0.6,1.4l0 0.86c0,0.23 -0.18,0.41 -0.41,0.41l-2.82 3.05 -2.8 -3.06c-0.22,0 -0.41,-0.18 -0.41,-0.4l0 -0.64 -0.17 -0.18c-0.39,-0.41 -0.6,-0.88 -0.64,-1.44l-0.06 -0.96z" class="colore31c25 svgShape"/><path fill="#fff" d="M40.93 32.93c-0.36,0.34 -0.91,0.35 -1.28,0.02l-2.64 -2.36c-0.14,0.09 -0.28,0.2 -0.39,0.33l-0.74 0.9 4.5 4.26 4.15 -4.26 -0.66 -0.86c0,0 -0.18,-0.21 -0.43,-0.45l-2.51 2.42z" class="colorffffff svgShape"/><path fill="#5d5d5d" d="M40.17 44.42c-3.66,0 -7.32,-0.26 -10.98,-0.76 -0.49,-0.07 -0.89,-0.33 -1.18,-0.79 -0.28,-0.45 -0.36,-0.96 -0.24,-1.49l0.54 -4c0.3,-1.14 0.48,-1.56 0.8,-1.82 1.38,-1.13 4.05,-1.81 5.26,-2.34l0.89 -1.09c0.18,-0.22 0.37,-0.4 0.73,-0.4l4.08 3.75c0.16,0.12 0.38,0.11 0.53,-0.01l3.75 -3.74c0.36,0 0.55,0.18 0.73,0.4l0.89 1.09c1.21,0.53 3.88,1.21 5.26,2.34 0.32,0.26 0.5,0.68 0.8,1.82l0.54 4c0.12,0.53 0.04,1.04 -0.25,1.49 -0.28,0.46 -0.68,0.72 -1.18,0.79 -3.65,0.5 -7.31,0.76 -10.97,0.76z" class="colorbb000e svgShape"/><path fill="#fff" d="M20.79 30.53c0,0 0.27,-0.93 1.29,-1.05l8.71 0c0,0 1.07,0.35 1.31,1.04l-0.02 4.53 -0.72 15.71c0,0 -7.67,0.26 -9.76,0l-0.24 -3.7 -0.61 -14.2 0.04 -2.33z" class="colorffffff svgShape"/><path fill="#525252" d="M25.18 35.93c0.1,0.12 0.14,0.27 0.13,0.43l-0.93 12.66 -0.11 1.53c-0.01,0.12 -0.02,0.22 0.04,0.32 1.3,0.03 2.75,0.03 4.22,0 0.05,-0.1 0.08,-0.21 0.07,-0.32l-0.12 -1.65 -0.93 -12.53c-0.01,-0.16 0.04,-0.32 0.14,-0.45l0.85 -1.1c0.11,-0.14 0.15,-0.31 0.13,-0.49 -0.03,-0.19 -0.08,-0.44 -0.27,-0.44l-1.4 -0.61c-0.37,-0.16 -0.79,-0.16 -1.16,0.01l-1.38 0.6c-0.18,0 -0.23,0.25 -0.26,0.44 -0.03,0.18 0.02,0.35 0.13,0.49l0.85 1.11z" class="color525252 svgShape"/><path fill="#525252" d="M20.88 24.37l-0.02 -0.01c-0.25,-0.08 -0.47,-0.16 -0.63,-0.3 -0.16,-0.13 -0.27,-0.3 -0.4,-0.65 -0.12,-0.35 -0.26,-0.86 -0.36,-1.32 -0.1,-0.47 -0.16,-0.88 -0.18,-1.23 -0.03,-0.36 -0.03,-0.66 0.06,-0.9 0.08,-0.24 0.31,-0.43 0.46,-0.47 0.16,-0.05 0.25,-0.02 0.31,-0.04 0.07,-0.02 -0.03,-0.06 -0.03,-0.09l-0.19 -2.67c-0.13,-1.23 0.14,-3.01 1.03,-3.84 0.22,-0.2 0.86,-0.53 1.15,-1.2 0.18,-0.42 0.89,-1.11 1.52,-1.38 0.96,-0.43 2.03,-0.75 3.08,-0.65 1.18,0.11 2.34,0.62 3.34,1.26 0.8,0.52 1.49,1.28 1.93,2.13 0.46,0.9 0.61,1.89 0.7,2.97 0.09,1.08 0.01,2.37 -0.14,3.46 0.12,0 0.23,0.03 0.33,0.07 0.23,0.08 0.43,0.23 0.53,0.51 0.09,0.29 0.08,0.7 0.05,1.11 -0.04,0.41 -0.1,0.82 -0.2,1.23 -0.1,0.41 -0.24,0.83 -0.36,1.12 -0.12,0.29 -0.23,0.47 -0.39,0.6 -0.17,0.13 -0.38,0.22 -0.64,0.3 -0.05,0.02 -0.1,0.03 -0.15,0.04l-0.08 1.26c-0.05,0.73 -0.31,1.35 -0.81,1.89l0 2.17c0,0.43 -0.18,0.81 -0.52,1.07l-3.7 2.3c-0.12,0.08 -0.26,0.07 -0.38,0l-3.6 -2.3c-0.34,-0.26 -0.52,-0.64 -0.52,-1.07l0 -1.87 -0.24 -0.25c-0.51,-0.53 -0.81,-1.22 -0.86,-1.95l-0.09 -1.3 0 0z" class="color525252 svgShape"/><path fill="gray" d="M22.85 45.91c0.19,-6.43 -1.6,-12.74 -1.47,-14.92 0.04,-0.54 -0.42,-0.58 -0.54,-0.47 -0.51,0.46 -0.69,0.57 -1.84,1.04 -1.39,0.57 -3.59,1.15 -5.01,1.51 -1.42,0.36 -2.05,0.5 -2.5,0.84 -0.45,0.35 -0.71,0.9 -1.13,2.41 -0.26,0.95 -0.59,9.04 -0.95,10.5 -0.17,0.7 -0.05,1.38 0.35,1.98 0.39,0.6 0.96,0.95 1.65,1.05 3.57,0.48 6.58,0.78 10.03,0.91 0.67,0.03 1.23,-0.51 1.26,-1.2l0.15 -3.65z" class="colore31c25 svgShape"/><path fill="#5d5d5d" d="M21.48 31.11c0.05,-0.66 -0.52,-0.72 -0.67,-0.58 -0.06,0.06 -0.16,0.18 -0.16,0.18l-1.98 3.89 2.04 -0.09 -2.1 1.58c0,0 4.05,9.11 4.13,13.22 0.88,-7.34 -1.42,-15.55 -1.26,-18.2z" class="colorbb000e svgShape"/><path fill="gray" d="M30.24 49.56c0.02,0.69 0.59,1.23 1.25,1.2 3.45,-0.13 6.47,-0.43 10.03,-0.91 0.7,-0.1 1.26,-0.46 1.66,-1.06 0.39,-0.6 0.51,-1.27 0.34,-1.97 -0.35,-1.46 -0.68,-9.55 -0.94,-10.5 -0.43,-1.51 -0.69,-2.06 -1.14,-2.41 -0.44,-0.34 -1.08,-0.48 -2.49,-0.84 -1.42,-0.36 -3.62,-0.94 -5.02,-1.51 -1.14,-0.47 -1.32,-0.58 -1.83,-1.04 -0.12,-0.11 -0.59,-0.07 -0.55,0.47 0.13,2.18 -1.66,8.49 -1.47,14.92l0.16 3.65z" class="colore31c25 svgShape"/><path fill="#5d5d5d" d="M30.21 49.31c0.07,-4.11 4.12,-13.22 4.12,-13.22l-2.09 -1.58 2.03 0.09 -1.98 -3.89c0,0 -0.1,-0.12 -0.16,-0.18 -0.15,-0.14 -0.72,-0.08 -0.66,0.58 0.15,2.65 -2.15,10.85 -1.26,18.2z" class="colorbb000e svgShape"/></svg>