<?xml version="1.0" encoding="UTF-8"?>
<svg version="1.1" xmlns="http://www.w3.org/2000/svg" width="450" height="450">
<path d="M0 0 C148.5 0 297 0 450 0 C450 148.5 450 297 450 450 C301.5 450 153 450 0 450 C0 301.5 0 153 0 0 Z " fill="#FFA500" transform="translate(0,0)"/>
<path d="M0 0 C0.84575592 -0.00761353 1.69151184 -0.01522705 2.56289673 -0.02307129 C4.34984388 -0.03386246 6.13685406 -0.03672938 7.92382812 -0.03222656 C10.64821489 -0.03125565 13.3697708 -0.07285511 16.09375 -0.1171875 C17.83332749 -0.122396 19.57291472 -0.12508267 21.3125 -0.125 C22.52684219 -0.1495929 22.52684219 -0.1495929 23.76571655 -0.17468262 C27.87026201 -0.12491423 30.51483968 0.22524296 33.78759766 2.81835938 C36.2890625 5.46875 36.2890625 5.46875 37.2890625 8.46875 C38.15543429 8.47021656 39.02180609 8.47168312 39.91443157 8.47319412 C60.98791601 8.51023372 82.06123926 8.5692106 103.13459301 8.65265274 C113.32548985 8.69247475 123.51630912 8.72485117 133.70727539 8.73974609 C142.58895595 8.75274623 151.47046604 8.77966892 160.3520506 8.82336307 C165.05551787 8.84601479 169.7587746 8.86165846 174.46230125 8.86063385 C178.88895642 8.85988942 183.31514553 8.87775235 187.74168015 8.90991783 C189.36662865 8.91844011 190.99162929 8.92015099 192.6165905 8.91455269 C194.83557196 8.90792588 197.05306482 8.92579889 199.27189636 8.94976807 C200.51355151 8.95345524 201.75520666 8.95714241 203.03448772 8.96094131 C206.88629752 9.5619361 208.53924427 10.75953763 211.2890625 13.46875 C212.48950562 15.86963624 212.41864553 17.36085359 212.42607689 20.04250813 C212.43115143 21.0117907 212.43622597 21.98107327 212.44145429 22.97972804 C212.44195205 24.05217539 212.44244981 25.12462273 212.44296265 26.22956848 C212.44953603 27.92968135 212.44953603 27.92968135 212.4562422 29.66413993 C212.46967007 33.48809035 212.47581797 37.3120177 212.48193359 41.13598633 C212.48930245 43.86705303 212.49809466 46.59811486 212.50671387 49.32917786 C212.53124963 57.54348431 212.54586616 65.75779684 212.55877393 73.97212866 C212.56248482 76.29129682 212.56645813 78.61046439 212.5705266 80.92963195 C212.5957606 95.32443156 212.61781858 109.7192321 212.63025475 124.11404896 C212.63318455 127.44916093 212.6361462 130.78427287 212.63916016 134.11938477 C212.63990621 134.94833312 212.64065226 135.77728147 212.64142092 136.63134947 C212.65407954 150.06535114 212.68730878 163.49922062 212.72896199 176.93316046 C212.77135452 190.7182701 212.79494661 204.503312 212.80017531 218.28848666 C212.80359235 226.03133591 212.8153818 233.77397851 212.84827805 241.51676369 C212.87624291 248.10973104 212.88729369 254.7024494 212.87608258 261.29547147 C212.87088656 264.66038892 212.87655272 268.02436114 212.89854813 271.3892746 C212.92109087 275.03561688 212.91301234 278.68063353 212.89706421 282.32698059 C212.9109463 283.39273577 212.92482838 284.45849095 212.93913114 285.55654174 C212.86156864 292.72521318 212.86156864 292.72521318 209.87606239 296.60261059 C205.81809232 299.52983834 203.70297373 299.59203997 198.69754028 299.58659363 C198.0126169 299.58729821 197.32769352 299.58800279 196.62201488 299.58872873 C194.31585616 299.59004219 192.00976507 299.58435342 189.70361328 299.57885742 C188.05465698 299.57861539 186.40570053 299.57889218 184.75674438 299.57965088 C181.20014102 299.58075872 177.64355055 299.57932024 174.08694839 299.57628441 C168.46523588 299.57265988 162.843591 299.58177406 157.22189331 299.59407043 C156.27399528 299.59609236 155.32609724 299.59811429 154.34947503 299.60019749 C152.41092039 299.60436625 150.47236582 299.60856901 148.53381133 299.61280501 C135.44193481 299.64097961 122.35020438 299.66106525 109.25830078 299.64379883 C100.43261892 299.63225399 91.60723977 299.64179113 82.78161228 299.67585641 C78.10881604 299.69304084 73.43656615 299.69925694 68.76376724 299.679739 C64.36895388 299.66154887 59.97508276 299.67106362 55.58034897 299.70199585 C53.96625234 299.70837696 52.35207784 299.70447174 50.73803711 299.68959999 C48.53573734 299.67081206 46.33669354 299.68876867 44.134552 299.71598816 C42.90194704 299.71653293 41.66934208 299.71707769 40.39938545 299.71763897 C37.01701406 300.18959165 37.01701406 300.18959165 35.04871941 303.39079762 C34.46803263 304.4065219 33.88734585 305.42224619 33.2890625 306.46875 C29.46998036 309.01480476 26.32452183 308.79231502 21.89453125 308.8046875 C21.06955643 308.8113443 20.2445816 308.8180011 19.39460754 308.82485962 C17.64875517 308.83498325 15.90286412 308.83967673 14.15698242 308.83935547 C11.49657652 308.84371719 8.83784546 308.8800059 6.17773438 308.91796875 C4.47917232 308.92383944 2.78060241 308.92780714 1.08203125 308.9296875 C0.29120651 308.94405853 -0.49961823 308.95842957 -1.31440735 308.97323608 C-6.5355814 308.93043699 -9.65984511 308.06093108 -13.7109375 304.46875 C-15.42395176 300.99463927 -15.96160095 298.19306308 -15.96541309 294.34123325 C-15.97124529 293.32479349 -15.97707748 292.30835372 -15.98308641 291.26111275 C-15.97930708 290.15139467 -15.97552776 289.04167659 -15.97163391 287.89833069 C-15.97545946 286.71406177 -15.97928501 285.52979286 -15.98322648 284.30963701 C-15.99176065 281.02601475 -15.99132246 277.74253526 -15.98704588 274.45890915 C-15.98458027 270.91623322 -15.99359076 267.37358366 -16.00108337 263.83091736 C-16.0138368 256.89194814 -16.01562328 249.9530176 -16.01328311 243.01403863 C-16.01150058 237.37442568 -16.0132482 231.73482448 -16.01750755 226.09521294 C-16.01810274 225.29276796 -16.01869793 224.49032299 -16.01931116 223.6635615 C-16.0205229 222.03343356 -16.02173703 220.40330562 -16.02295353 218.77317768 C-16.03383147 203.48377714 -16.03166533 188.19439865 -16.02556869 172.90499686 C-16.02039883 158.91577708 -16.03165633 144.92662692 -16.05066691 130.93742091 C-16.07003543 116.57476944 -16.07830307 102.21215091 -16.07454365 87.84948629 C-16.07263017 79.78534144 -16.07513352 71.72125586 -16.08925819 63.65712166 C-16.10116038 56.79236723 -16.10258996 49.92770854 -16.09046803 43.06295282 C-16.08457123 39.56042663 -16.08350184 36.05807568 -16.09547043 32.55556107 C-16.10587904 28.75892794 -16.09788398 24.9627687 -16.0851593 21.16615295 C-16.09253359 20.0586656 -16.09990787 18.95117824 -16.10750562 17.81013066 C-16.06170847 11.33414544 -15.5440335 6.65124714 -11.06787109 1.62304688 C-7.48503377 -0.13163045 -3.90779718 0.00096741 0 0 Z " fill="#AD282F" transform="translate(107.7109375,70.53125)"/>
<path d="M0 0 C0.84575592 -0.00761353 1.69151184 -0.01522705 2.56289673 -0.02307129 C4.34984388 -0.03386246 6.13685406 -0.03672938 7.92382812 -0.03222656 C10.64821489 -0.03125565 13.3697708 -0.07285511 16.09375 -0.1171875 C17.83332749 -0.122396 19.57291472 -0.12508267 21.3125 -0.125 C22.52684219 -0.1495929 22.52684219 -0.1495929 23.76571655 -0.17468262 C27.87026201 -0.12491423 30.51483968 0.22524296 33.78759766 2.81835938 C36.84248541 6.05512118 37.41896751 8.19138341 37.38671875 12.48046875 C37.38349609 13.23779297 37.38027344 13.99511719 37.37695312 14.77539062 C37.36438477 15.95391602 37.36438477 15.95391602 37.3515625 17.15625 C37.34705078 17.95353516 37.34253906 18.75082031 37.33789062 19.57226562 C37.326121 21.53779257 37.30818598 23.50328085 37.2890625 25.46875 C36.1546875 25.9225 35.0203125 26.37625 33.8515625 26.84375 C30.24184558 28.03970806 30.24184558 28.03970806 29.2890625 30.46875 C29.19383834 31.85206053 29.15990863 33.23984344 29.15763474 34.62642574 C29.15187302 35.94112218 29.15187302 35.94112218 29.1459949 37.28237814 C29.14686138 38.25113412 29.14772787 39.2198901 29.14862061 40.21800232 C29.14564948 41.24256611 29.14267836 42.26712991 29.1396172 43.32274109 C29.13090044 46.77823851 29.12941946 50.23370142 29.12792969 53.68920898 C29.12330368 56.15751215 29.11827932 58.6258146 29.11288452 61.09411621 C29.09973908 67.81506057 29.09327524 74.53599134 29.08887386 81.25694537 C29.0861134 85.45108908 29.08187645 89.64523048 29.07736969 93.83937263 C29.06517655 105.44510853 29.05487684 117.05084257 29.0514946 128.65658474 C29.05127503 129.39963024 29.05105547 130.14267573 29.05082925 130.90823776 C29.05061097 131.65308713 29.05039269 132.39793649 29.0501678 133.16535705 C29.04972433 134.67477254 29.04927777 136.18418803 29.04882812 137.69360352 C29.04849598 138.81669308 29.04849598 138.81669308 29.04815713 139.96247131 C29.04420702 152.1012486 29.02674673 164.23996593 29.0034686 176.37872004 C28.97977818 188.83266691 28.96729383 201.28658366 28.96612668 213.74055344 C28.96520869 220.7365734 28.95942533 227.73251523 28.94130707 234.72851372 C28.92433438 241.30545889 28.92263611 247.88228156 28.93144608 254.4592514 C28.93222023 256.87844553 28.92782432 259.29764742 28.91798782 261.71682167 C28.90538288 265.00889939 28.91108253 268.30044103 28.92156982 271.59251404 C28.91351342 272.5590393 28.90545702 273.52556455 28.89715648 274.52137846 C28.90374632 275.40045049 28.91033617 276.27952253 28.9171257 277.18523312 C28.91623007 278.32561579 28.91623007 278.32561579 28.91531634 279.4890365 C29.3972288 282.04170115 30.26012601 282.88709931 32.2890625 284.46875 C35.38913451 285.66924407 35.38913451 285.66924407 38.2890625 286.46875 C39.32228089 299.0204401 39.32228089 299.0204401 35.4140625 304.21875 C33.73038997 306.15456672 32.58412844 307.32121703 30.2890625 308.46875 C27.51516139 308.60437708 24.7676179 308.68146963 21.9921875 308.70703125 C21.16579773 308.715103 20.33940796 308.72317474 19.48797607 308.73149109 C17.73614602 308.74533371 15.98428898 308.75605507 14.23242188 308.76391602 C11.56327554 308.78109417 8.89537919 308.82497289 6.2265625 308.86914062 C4.5234466 308.87927082 2.82032017 308.8877859 1.1171875 308.89453125 C0.32322571 308.91203934 -0.47073608 308.92954742 -1.28875732 308.94758606 C-6.52626838 308.92726095 -9.64833101 308.07768592 -13.7109375 304.46875 C-15.42371181 300.99450382 -15.96160089 298.19311605 -15.96541309 294.34123325 C-15.97124529 293.32479349 -15.97707748 292.30835372 -15.98308641 291.26111275 C-15.97930708 290.15139467 -15.97552776 289.04167659 -15.97163391 287.89833069 C-15.97545946 286.71406177 -15.97928501 285.52979286 -15.98322648 284.30963701 C-15.99176065 281.02601475 -15.99132246 277.74253526 -15.98704588 274.45890915 C-15.98458027 270.91623322 -15.99359076 267.37358366 -16.00108337 263.83091736 C-16.0138368 256.89194814 -16.01562328 249.9530176 -16.01328311 243.01403863 C-16.01150058 237.37442568 -16.0132482 231.73482448 -16.01750755 226.09521294 C-16.01810274 225.29276796 -16.01869793 224.49032299 -16.01931116 223.6635615 C-16.0205229 222.03343356 -16.02173703 220.40330562 -16.02295353 218.77317768 C-16.03383147 203.48377714 -16.03166533 188.19439865 -16.02556869 172.90499686 C-16.02039883 158.91577708 -16.03165633 144.92662692 -16.05066691 130.93742091 C-16.07003543 116.57476944 -16.07830307 102.21215091 -16.07454365 87.84948629 C-16.07263017 79.78534144 -16.07513352 71.72125586 -16.08925819 63.65712166 C-16.10116038 56.79236723 -16.10258996 49.92770854 -16.09046803 43.06295282 C-16.08457123 39.56042663 -16.08350184 36.05807568 -16.09547043 32.55556107 C-16.10587904 28.75892794 -16.09788398 24.9627687 -16.0851593 21.16615295 C-16.09253359 20.0586656 -16.09990787 18.95117824 -16.10750562 17.81013066 C-16.06170847 11.33414544 -15.5440335 6.65124714 -11.06787109 1.62304688 C-7.48503377 -0.13163045 -3.90779718 0.00096741 0 0 Z " fill="#E62D40" transform="translate(107.7109375,70.53125)"/>
<path d="M0 0 C0.91741974 -0.00043808 1.83483948 -0.00087616 2.78005981 -0.00132751 C5.81029595 0.00076132 8.83997778 0.02409709 11.87011719 0.04760742 C13.97190041 0.05320303 16.07368754 0.05747329 18.17547607 0.06047058 C23.70592054 0.07192207 29.23612845 0.10139204 34.76647949 0.13458252 C40.41036784 0.16527675 46.05429442 0.17897455 51.69824219 0.1940918 C62.77126276 0.2262613 73.8441078 0.27746148 84.91699219 0.34057617 C84.91699219 1.00057617 84.91699219 1.66057617 84.91699219 2.34057617 C85.65949219 2.42307617 86.40199219 2.50557617 87.16699219 2.59057617 C91.28901153 3.71476327 92.98134587 6.1182589 95.51091003 9.42285156 C97.44735757 13.44112362 97.32965638 16.86935043 97.28930664 21.27416992 C97.29295731 22.16419708 97.29660797 23.05422424 97.30036926 23.97122192 C97.30846117 26.90703538 97.29487582 29.84229455 97.28027344 32.77807617 C97.27975467 34.82161458 97.28027302 36.86515349 97.28178406 38.90869141 C97.28169439 43.18912212 97.27127697 47.46936427 97.25317383 51.74975586 C97.23048702 57.2342673 97.22994326 62.71850326 97.23669147 68.20304871 C97.24003424 72.42210332 97.23339553 76.64109522 97.22356224 80.86013794 C97.21971528 82.88233105 97.21855994 84.90453115 97.22014809 86.92672729 C97.22051928 89.75361401 97.20788333 92.58014864 97.19165039 95.40698242 C97.19412781 96.24141876 97.19660522 97.0758551 97.19915771 97.93557739 C97.14196874 104.18132843 96.16944988 108.50699312 91.66699219 113.09057617 C91.10496094 113.68354492 90.54292969 114.27651367 89.96386719 114.88745117 C85.28969558 118.2057562 78.97921878 117.48908595 73.45239258 117.48583984 C72.20973381 117.49087776 72.20973381 117.49087776 70.94197083 117.49601746 C68.21618125 117.50548003 65.49045339 117.50746807 62.76464844 117.50854492 C60.86185176 117.51176028 58.95905532 117.51512456 57.05625916 117.51863098 C53.0727379 117.52461016 49.08923831 117.52647208 45.10571289 117.52587891 C40.01043842 117.52577724 34.91530316 117.53943927 29.82006168 117.55665112 C25.89175279 117.56778746 21.96347741 117.56979763 18.03515434 117.56926918 C16.15695147 117.57044645 14.27874765 117.57485397 12.40056038 117.58260155 C9.77060392 117.59243638 7.14094797 117.58950986 4.51098633 117.58349609 C3.74141602 117.5891156 2.9718457 117.59473511 2.17895508 117.6005249 C-4.85244622 117.55982052 -10.92535195 116.49823203 -16.08300781 111.34057617 C-16.08300781 110.35057617 -16.08300781 109.36057617 -16.08300781 108.34057617 C-16.74300781 108.34057617 -17.40300781 108.34057617 -18.08300781 108.34057617 C-20.1248843 103.25165613 -20.37956087 98.88171741 -20.37353516 93.49291992 C-20.38025238 92.62386017 -20.3869696 91.75480042 -20.39389038 90.85940552 C-20.41282219 87.9989036 -20.4167917 85.13863676 -20.41894531 82.27807617 C-20.42537502 80.28320215 -20.43210351 78.28832908 -20.43911743 76.29345703 C-20.451077 72.11740939 -20.45479945 67.94144441 -20.45361328 63.76538086 C-20.45340981 58.41874207 -20.48074721 53.07263311 -20.5151577 47.72612 C-20.5374077 43.60825166 -20.54145145 39.49051141 -20.54039383 35.37258911 C-20.54275129 33.40144011 -20.55158296 31.43028766 -20.56705856 29.459198 C-20.5866863 26.70183231 -20.58089394 23.9456172 -20.56884766 21.18823242 C-20.58008667 20.37766388 -20.59132568 19.56709534 -20.60290527 18.73196411 C-20.5436176 13.38304851 -19.59220234 10.4401326 -16.08300781 6.34057617 C-15.42300781 6.34057617 -14.76300781 6.34057617 -14.08300781 6.34057617 C-13.75300781 5.35057617 -13.42300781 4.36057617 -13.08300781 3.34057617 C-9.45994699 -0.69792137 -5.02798871 -0.06272467 0 0 Z " fill="#1279BF" transform="translate(200.0830078125,115.659423828125)"/>
<path d="M0 0 C6.01512055 3.4680011 10.29531642 7.93594653 13.0625 14.3125 C14.58755724 24.31009743 13.85761542 31.51142664 7.9375 39.9375 C7.174375 40.948125 6.41125 41.95875 5.625 43 C6.305625 43.66 6.98625 44.32 7.6875 45 C8.67153128 45.99521345 9.65009349 46.9958463 10.625 48 C11.2025 48.59296875 11.78 49.1859375 12.375 49.796875 C12.973125 50.44140625 13.57125 51.0859375 14.1875 51.75 C14.74566406 52.34296875 15.30382812 52.9359375 15.87890625 53.546875 C21.5588644 61.52677146 22.22999011 68.72540874 22.0625 78.375 C22.06958984 79.54933594 22.07667969 80.72367187 22.08398438 81.93359375 C22.02050141 90.44031097 22.02050141 90.44031097 20.46803284 92.63726807 C17.8554668 94.56899011 15.96264288 94.3809643 12.73242188 94.38818359 C11.52106567 94.39764008 10.30970947 94.40709656 9.06164551 94.4168396 C7.75223999 94.41076691 6.44283447 94.40469421 5.09375 94.3984375 C3.73758793 94.40045851 2.38142691 94.40337018 1.02526855 94.40713501 C-1.81610467 94.41155716 -4.65719485 94.40513123 -7.49853516 94.39111328 C-11.14052103 94.37402097 -14.7818437 94.3838628 -18.42380524 94.40183067 C-21.22394812 94.41267175 -24.0239338 94.40922079 -26.82408142 94.4014473 C-28.8199405 94.39847298 -30.81580568 94.4075834 -32.81164551 94.4168396 C-34.62867981 94.40265488 -34.62867981 94.40265488 -36.48242188 94.38818359 C-37.55036987 94.38579681 -38.61831787 94.38341003 -39.71862793 94.38095093 C-42.375 94 -42.375 94 -44.21704102 92.62281799 C-46.78948532 89.01767398 -45.90026661 83.8175244 -45.875 79.5625 C-45.86927979 78.47388672 -45.86355957 77.38527344 -45.85766602 76.26367188 C-45.60577951 64.93980458 -43.03031283 56.92880152 -35.0859375 48.55078125 C-33.01983653 46.67808242 -30.83535294 45.30253979 -28.375 44 C-28.045 43.34 -27.715 42.68 -27.375 42 C-28.86 41.505 -28.86 41.505 -30.375 41 C-35.78779986 35.4231759 -36.49077162 29.9585718 -36.6875 22.5 C-36.5529973 15.16119632 -35.07043175 10.0232214 -29.99609375 4.421875 C-21.51187329 -3.01970632 -10.30558209 -4.60462178 0 0 Z " fill="#E8F5FC" transform="translate(250.375,133)"/>
<path d="M0 0 C3.375 1.25 3.375 1.25 6 3 C7.00203359 5.80222263 7.12453539 8.42363837 7.12304783 11.3809166 C7.12503888 12.25624629 7.12702993 13.13157598 7.12908131 14.03343081 C7.12471205 15.46922295 7.12471205 15.46922295 7.12025452 16.934021 C7.12110894 17.95424323 7.12196337 18.97446547 7.12284368 20.02560353 C7.12449467 23.4542612 7.1189833 26.88287026 7.11352539 30.31152344 C7.11324341 32.76528421 7.11340146 35.21904506 7.1139679 37.67280579 C7.11419583 42.96077859 7.11135397 48.24873618 7.10573006 53.53670502 C7.0976041 61.18222511 7.09499871 68.82773923 7.09374207 76.47326317 C7.09155327 88.87752388 7.08489785 101.28177802 7.07543945 113.68603516 C7.06626088 125.73583951 7.05918222 137.78564208 7.05493164 149.83544922 C7.05453756 150.94951573 7.05453756 150.94951573 7.05413551 152.08608863 C7.05283047 155.81203982 7.05156677 159.53799103 7.05032361 163.26394224 C7.03995637 194.17596628 7.02226841 225.08798214 7 256 C6.01 256 5.02 256 4 256 C3.505 257.98 3.505 257.98 3 260 C1.25138208 260.10853491 -0.49919241 260.18583428 -2.25 260.25 C-3.22453125 260.29640625 -4.1990625 260.3428125 -5.203125 260.390625 C-8 260 -8 260 -10.14263821 258.59910488 C-12.99931686 254.6016029 -12.55579977 250.8236206 -12.5146637 246.0236969 C-12.52160922 244.99883539 -12.52855475 243.97397387 -12.53571075 242.91805595 C-12.55405245 239.47322744 -12.54369617 236.02908203 -12.53344727 232.58422852 C-12.54050209 230.11887087 -12.54924525 227.65351757 -12.55955505 225.18817139 C-12.57976383 219.18044505 -12.58106417 213.17298849 -12.57292951 207.16525573 C-12.56663249 202.28265185 -12.56776378 197.40010322 -12.57420158 192.51749992 C-12.57510324 191.82286983 -12.57600489 191.12823973 -12.57693387 190.41256024 C-12.57878505 189.00146801 -12.58064762 187.5903758 -12.58252143 186.17928361 C-12.59910552 172.94291146 -12.5903757 159.70664586 -12.57353585 146.4702801 C-12.55883975 134.35878156 -12.57346481 122.24753112 -12.60230602 110.13606454 C-12.63169424 97.70236021 -12.64267391 85.26877042 -12.63312382 72.83503288 C-12.63210125 71.42879389 -12.63110665 70.02255487 -12.6301403 68.61631584 C-12.62966391 67.92440768 -12.62918752 67.23249951 -12.6286967 66.51962443 C-12.62653172 61.64322746 -12.6363411 56.76693881 -12.65091133 51.89056587 C-12.6702501 45.32662599 -12.66336448 38.76307369 -12.63871193 32.1991272 C-12.63368978 29.78722809 -12.6372299 27.37529404 -12.64986038 24.96342278 C-12.66571581 21.6761743 -12.65090928 18.39046176 -12.62818909 15.10328674 C-12.64002482 14.14395141 -12.65186054 13.18461607 -12.66405493 12.19620997 C-12.60007022 7.65403672 -12.47220405 5.62980475 -9.67558193 1.89979458 C-6.14649503 -0.60603045 -4.25268027 -0.59686741 0 0 Z " fill="#831E21" transform="translate(148,96)"/>
<path d="M0 0 C0.33 0 0.66 0 1 0 C1 4.62 1 9.24 1 14 C2.299375 14.103125 3.59875 14.20625 4.9375 14.3125 C10.48572961 14.94357825 16.60452385 15.71532781 20.7734375 19.69140625 C22.46288431 22.87122492 22.11890967 25.0722395 21.75 28.625 C21.64171875 29.77226563 21.5334375 30.91953125 21.421875 32.1015625 C21 35 21 35 20 37 C20.99 37.103125 21.98 37.20625 23 37.3125 C28.27456408 38.09510808 33.21333953 39.21333953 37.0625 43.0625 C39.37238877 50.30015149 36.54036939 58.41240414 34.375 65.4375 C31.88627705 73.81281924 29.60379199 82.22309011 27.4375 90.6875 C24.74682606 101.16216968 21.9439624 111.59407142 19 122 C15.25217707 135.25640126 11.53955338 148.51409173 8.12915039 161.86206055 C7.90735107 162.72613525 7.68555176 163.59020996 7.45703125 164.48046875 C7.13913635 165.74103592 7.13913635 165.74103592 6.81481934 167.02706909 C6.27657421 168.99089776 5.67346169 170.93820787 5.00413513 172.86131287 C1.42017301 183.6009904 1.39548374 193.8352833 1.390625 205.0546875 C1.37561361 207.05251384 1.35888035 209.0503279 1.34051514 211.04812622 C1.29716141 216.25938546 1.27691407 221.47047739 1.26177979 226.68188477 C1.2420924 232.01849125 1.20013614 237.35492004 1.16015625 242.69140625 C1.08520124 253.12754892 1.0347006 263.56365117 1 274 C0.67 274 0.34 274 0 274 C0 183.58 0 93.16 0 0 Z " fill="#A2B1B1" transform="translate(320,88)"/>
<path d="M0 0 C6.01512055 3.4680011 10.29531642 7.93594653 13.0625 14.3125 C14.87783985 26.21306123 12.61024492 33.37168944 5.625 43 C5.625 43.66 5.625 44.32 5.625 45 C-0.1340095 47.54073948 -5.6151876 48.15023921 -11.875 48.1875 C-12.9578125 48.20167969 -14.040625 48.21585938 -15.15625 48.23046875 C-18.52698705 47.98911743 -21.2280049 47.19908096 -24.375 46 C-24.375 45.34 -24.375 44.68 -24.375 44 C-25.365 44 -26.355 44 -27.375 44 C-27.375 43.34 -27.375 42.68 -27.375 42 C-28.365 41.67 -29.355 41.34 -30.375 41 C-35.78779986 35.4231759 -36.49077162 29.9585718 -36.6875 22.5 C-36.5529973 15.16119632 -35.07043175 10.0232214 -29.99609375 4.421875 C-21.51187329 -3.01970632 -10.30558209 -4.60462178 0 0 Z " fill="#CDD8DF" transform="translate(250.375,133)"/>
<path d="M0 0 C0.33 0 0.66 0 1 0 C1 1.65 1 3.3 1 5 C22.78 5 44.56 5 67 5 C67 11.27 67 17.54 67 24 C63.4808435 27.5191565 62.8635581 27.377554 58.10742188 27.38818359 C56.89606567 27.39764008 55.68470947 27.40709656 54.43664551 27.4168396 C53.12723999 27.41076691 51.81783447 27.40469421 50.46875 27.3984375 C49.11258793 27.40045851 47.75642691 27.40337018 46.40026855 27.40713501 C43.55889533 27.41155716 40.71780515 27.40513123 37.87646484 27.39111328 C34.23447897 27.37402097 30.5931563 27.3838628 26.95119476 27.40183067 C24.15105188 27.41267175 21.3510662 27.40922079 18.55091858 27.4014473 C16.5550595 27.39847298 14.55919432 27.4075834 12.56335449 27.4168396 C11.35199829 27.40738312 10.14064209 27.39792664 8.89257812 27.38818359 C7.82463013 27.38579681 6.75668213 27.38341003 5.65637207 27.38095093 C3 27 3 27 1.15299988 25.63471985 C-0.54048972 23.23369526 -0.3391648 21.3673826 -0.29296875 18.45703125 C-0.28330078 17.38388672 -0.27363281 16.31074219 -0.26367188 15.20507812 C-0.23853516 14.08552734 -0.21339844 12.96597656 -0.1875 11.8125 C-0.16719727 10.11577148 -0.16719727 10.11577148 -0.14648438 8.38476562 C-0.11109958 5.58936683 -0.06172948 2.79492108 0 0 Z " fill="#CDD9DE" transform="translate(205,200)"/>
<path d="M0 0 C10.31830986 1.14647887 10.31830986 1.14647887 13.875 2.3125 C14.95394531 2.64701172 14.95394531 2.64701172 16.0546875 2.98828125 C18.623758 4.32440426 19.63696841 5.43454882 21 8 C21.109375 11.1640625 21.109375 11.1640625 20.75 14.625 C20.64171875 15.77226563 20.5334375 16.91953125 20.421875 18.1015625 C20 21 20 21 19 23 C19.66 23.33 20.32 23.66 21 24 C20.67 24.66 20.34 25.32 20 26 C19.34 26 18.68 26 18 26 C17.88970459 26.68932617 17.77940918 27.37865234 17.66577148 28.08886719 C16.29326781 36.5087429 14.7033159 44.87890501 13.0625 53.25 C12.52262154 56.01286201 11.98371042 58.77591162 11.4453125 61.5390625 C11.31589767 62.20267792 11.18648285 62.86629333 11.05314636 63.55001831 C10.1419541 68.23523171 9.28021843 72.9270869 8.4375 77.625 C7.1336749 84.69844633 5.45816418 91.67133576 3.71264648 98.64697266 C2.45009928 103.76503505 1.54632137 108.75531487 1 114 C0.67 114 0.34 114 0 114 C0 76.38 0 38.76 0 0 Z " fill="#BED4CE" transform="translate(321,102)"/>
<path d="M0 0 C0.33 0 0.66 0 1 0 C1.33 39.6 1.66 79.2 2 120 C2.66 117.36 3.32 114.72 4 112 C4.33 112 4.66 112 5 112 C5.33 117.28 5.66 122.56 6 128 C6.33 128 6.66 128 7 128 C7.4021875 129.7015625 7.4021875 129.7015625 7.8125 131.4375 C8.204375 132.613125 8.59625 133.78875 9 135 C9.99 135.33 10.98 135.66 12 136 C11.690625 136.9075 11.38125 137.815 11.0625 138.75 C9.44918345 143.68485062 8.92656757 147.6496189 8.8125 152.875 C8.5782366 158.72514938 7.57197414 163.92720055 5.83519173 169.51283836 C2.02970396 181.77488069 1.12844729 193.07146589 1.1953125 205.8359375 C1.18401981 207.82233264 1.17012099 209.80871446 1.15377808 211.79507446 C1.11823806 216.9406187 1.11730229 222.08556295 1.12445068 227.23120117 C1.12537391 232.51491554 1.09236027 237.79841707 1.0625 243.08203125 C1.00910751 253.38808388 0.99239851 263.69382401 1 274 C0.67 274 0.34 274 0 274 C0 183.58 0 93.16 0 0 Z " fill="#AE989D" transform="translate(320,88)"/>
<path d="M0 0 C0.66 0 1.32 0 2 0 C2 95.04 2 190.08 2 288 C2.66 288 3.32 288 4 288 C3 291 3 291 1 292 C-0.22619141 289.54761718 -0.12423101 287.96747265 -0.12304783 285.22486687 C-0.12503888 284.21070005 -0.12702993 283.19653324 -0.12908131 282.1516341 C-0.12616847 281.02908477 -0.12325563 279.90653545 -0.12025452 278.74996948 C-0.12153615 276.97106093 -0.12153615 276.97106093 -0.12284368 275.15621483 C-0.12421037 271.8542552 -0.12106854 268.55235429 -0.11606562 265.25040174 C-0.11176007 261.69348477 -0.11320762 258.13656972 -0.1139679 254.57965088 C-0.11449306 248.41367027 -0.111347 242.24770021 -0.10573006 236.08172226 C-0.0976141 227.16667759 -0.09499974 218.25163803 -0.09374207 209.33659007 C-0.0915517 194.87364178 -0.08489202 180.41069913 -0.07543945 165.94775391 C-0.06626495 151.89567086 -0.0591843 137.84358934 -0.05493164 123.79150391 C-0.05466892 122.92580064 -0.05440619 122.06009737 -0.05413551 121.16816066 C-0.0528305 116.82532128 -0.05156679 112.48248188 -0.05032361 108.13964248 C-0.03995146 72.09309101 -0.02233356 36.04654594 0 0 Z " fill="#E83A4C" transform="translate(92,80)"/>
<path d="M0 0 C0.99 1.98 0.99 1.98 2 4 C-0.05233685 6.2477975 -1.00667261 7.0022242 -4 8 C-4.33 8.66 -4.66 9.32 -5 10 C-4.01 10.33 -3.02 10.66 -2 11 C-3.32 11 -4.64 11 -6 11 C-6.33 10.34 -6.66 9.68 -7 9 C-11.53449015 8.11454071 -15.95440761 7.87000854 -20.56518555 7.84851074 C-21.84364349 7.84016708 -23.12210144 7.83182343 -24.43930054 7.82322693 C-25.83843969 7.81891851 -27.23757911 7.81469464 -28.63671875 7.81054688 C-30.12391388 7.80259537 -31.61110672 7.79420671 -33.09829712 7.78541565 C-36.29083589 7.76741877 -39.48336982 7.75238194 -42.67593384 7.73963928 C-47.72759215 7.71934231 -52.77919417 7.69170081 -57.83081055 7.66296387 C-68.55384726 7.60299092 -79.27691779 7.55107883 -90 7.5 C-101.577712 7.44485019 -113.1554069 7.38831251 -124.7330637 7.32245111 C-129.75135276 7.29417969 -134.76963544 7.27055636 -139.78796387 7.25052643 C-142.91308853 7.23709847 -146.03818197 7.21968878 -149.16328049 7.20121574 C-150.60841453 7.19348913 -152.05355847 7.18740679 -153.49870682 7.18312263 C-155.47742808 7.17702949 -157.45612595 7.16440286 -159.43481445 7.15148926 C-160.54017044 7.14633553 -161.64552643 7.14118179 -162.78437805 7.13587189 C-166.2423698 6.98975898 -169.58357302 6.54240851 -173 6 C-173 5.67 -173 5.34 -173 5 C-172.13786015 4.99668985 -171.27572029 4.99337971 -170.38745499 4.98996925 C-149.42284815 4.90879699 -128.45831401 4.81672354 -107.49380875 4.71247292 C-97.35558841 4.66232207 -87.21737626 4.61587944 -77.07910156 4.578125 C-68.24398698 4.5452141 -59.40893547 4.50538789 -50.57389045 4.45720994 C-45.89454143 4.43193599 -41.2152343 4.41015734 -36.53583527 4.39665604 C-32.13310706 4.38384384 -27.73052244 4.36179852 -23.32787323 4.33261681 C-21.71056163 4.32353445 -20.0932269 4.31784926 -18.47589111 4.31578636 C-16.27007956 4.31246845 -14.0646763 4.29700417 -11.85894775 4.2784729 C-10.62374516 4.27294214 -9.38854256 4.26741138 -8.11590958 4.26171303 C-5.14056859 4.01180671 -3.45026257 3.66108059 -1 2 C-0.67 1.34 -0.34 0.68 0 0 Z " fill="#E9CECB" transform="translate(318,365)"/>
<path d="M0 0 C0.66 0.99 1.32 1.98 2 3 C-0.05233685 5.2477975 -1.00667261 6.0022242 -4 7 C-6.76893607 7.10902044 -9.51195446 7.16404014 -12.28125 7.16796875 C-13.0911438 7.17129715 -13.9010376 7.17462555 -14.73547363 7.17805481 C-16.44685295 7.18311459 -18.15824212 7.18546343 -19.86962891 7.18530273 C-22.49007342 7.18749171 -25.11009858 7.20566398 -27.73046875 7.22460938 C-29.39322773 7.22754297 -31.0559887 7.22952799 -32.71875 7.23046875 C-33.50318481 7.23765427 -34.28761963 7.24483978 -35.0958252 7.25224304 C-38.9316474 7.23609572 -40.73154829 7.17896781 -44 5 C-40.75958083 3.37979041 -37.19521401 3.82124018 -33.6328125 3.7890625 C-31.92577166 3.76099413 -30.21874053 3.73232967 -28.51171875 3.703125 C-25.81689726 3.66185517 -23.12225723 3.62497319 -20.42724609 3.59863281 C-17.82871914 3.57102436 -15.23102045 3.52515385 -12.6328125 3.4765625 C-11.82852814 3.47330963 -11.02424377 3.47005676 -10.19558716 3.46670532 C-5.8845415 3.37198934 -3.11280453 3.13361901 0 0 Z " fill="#F8E4E4" transform="translate(142,375)"/>
<path d="M0 0 C0.66 1.32 1.32 2.64 2 4 C-0.05233685 6.2477975 -1.00667261 7.0022242 -4 8 C-4.33 8.66 -4.66 9.32 -5 10 C-4.01 10.33 -3.02 10.66 -2 11 C-3.32 11 -4.64 11 -6 11 C-6.33 10.34 -6.66 9.68 -7 9 C-9.32156597 8.59270772 -11.6568787 8.25561323 -14 8 C-14 7.34 -14 6.68 -14 6 C-12.783125 5.896875 -11.56625 5.79375 -10.3125 5.6875 C-6.58609755 5.22500324 -4.04120544 4.30394352 -1 2 C-0.67 1.34 -0.34 0.68 0 0 Z " fill="#F7F2F1" transform="translate(318,365)"/>
<path d="M0 0 C0.99 0 1.98 0 3 0 C3.79953138 3.28696233 4.09658936 4.71023192 3 8 C2.85222064 9.69867188 2.75252934 11.40177489 2.68359375 13.10546875 C2.64169922 14.08837891 2.59980469 15.07128906 2.55664062 16.08398438 C2.51732422 17.10814453 2.47800781 18.13230469 2.4375 19.1875 C2.39431641 20.22326172 2.35113281 21.25902344 2.30664062 22.32617188 C2.20055634 24.8839819 2.09849854 27.44188845 2 30 C1.67 30 1.34 30 1 30 C0.97494385 29.31373535 0.9498877 28.6274707 0.92407227 27.92041016 C0.80828573 24.82174183 0.68548115 21.72339077 0.5625 18.625 C0.52318359 17.54476562 0.48386719 16.46453125 0.44335938 15.3515625 C0.40146484 14.3203125 0.35957031 13.2890625 0.31640625 12.2265625 C0.27974854 11.27346191 0.24309082 10.32036133 0.20532227 9.33837891 C0.14236535 6.97867651 0.14236535 6.97867651 -1 5 C-0.72057545 3.32345271 -0.39171753 1.65391846 0 0 Z " fill="#1E7CBC" transform="translate(203,192)"/>
<path d="M0 0 C3.62107449 4.44404597 5.33060893 8.21434368 5 14 C4.01 13.67 3.02 13.34 2 13 C1.67 11.35 1.34 9.7 1 8 C0.01 8.495 0.01 8.495 -1 9 C-1.66 7.02 -2.32 5.04 -3 3 C-2.01 3.495 -2.01 3.495 -1 4 C-0.67 2.68 -0.34 1.36 0 0 Z " fill="#D4ECF6" transform="translate(267,189)"/>
<path d="M0 0 C0 0.66 0 1.32 0 2 C1.0828125 1.9690625 1.0828125 1.9690625 2.1875 1.9375 C4.91925138 1.99820559 7.34256091 2.39258535 10 3 C10 4.65 10 6.3 10 8 C9.31035156 7.65066406 8.62070313 7.30132812 7.91015625 6.94140625 C1.77879941 3.9724502 -3.19154148 2.33484222 -10 2 C-10 1.67 -10 1.34 -10 1 C-6.56484998 0.37542727 -3.50935186 0 0 0 Z " fill="#2A83B9" transform="translate(246,129)"/>
<path d="M0 0 C0.33 0 0.66 0 1 0 C1.08078641 2.12438339 1.13909141 4.2496323 1.1875 6.375 C1.22230469 7.55835938 1.25710937 8.74171875 1.29296875 9.9609375 C1.19628906 10.96382813 1.09960938 11.96671875 1 13 C0.01 13.66 -0.98 14.32 -2 15 C-2.33 14.67 -2.66 14.34 -3 14 C-4.65 15.65 -6.3 17.3 -8 19 C-8 16.69 -8 14.38 -8 12 C-6.68 12 -5.36 12 -4 12 C-3.34 11.67 -2.68 11.34 -2 11 C-1.34 11.33 -0.68 11.66 0 12 C0 8.04 0 4.08 0 0 Z " fill="#D62939" transform="translate(145,357)"/>
<path d="M0 0 C0.66 0 1.32 0 2 0 C0.40907948 4.13639336 -2.60474918 7.23213248 -6 10 C-6.66 10 -7.32 10 -8 10 C-8 9.34 -8 8.68 -8 8 C-7.34 8 -6.68 8 -6 8 C-6 7.01 -6 6.02 -6 5 C-6.66 5 -7.32 5 -8 5 C-8 4.34 -8 3.68 -8 3 C-5.36 2.67 -2.72 2.34 0 2 C0 1.34 0 0.68 0 0 Z " fill="#286DA8" transform="translate(294,222)"/>
<path d="M0 0 C1.32 0.66 2.64 1.32 4 2 C3.67 8.6 3.34 15.2 3 22 C2.67 22 2.34 22 2 22 C2 16.39 2 10.78 2 5 C1.01 4.67 0.02 4.34 -1 4 C-0.67 2.68 -0.34 1.36 0 0 Z " fill="#A82427" transform="translate(314,82)"/>
<path d="M0 0 C0 0.66 0 1.32 0 2 C-1.2065625 2.433125 -1.2065625 2.433125 -2.4375 2.875 C-5.1326468 3.73262568 -5.1326468 3.73262568 -6 6 C-7.65 6 -9.3 6 -11 6 C-9.08100535 0.24301605 -5.72528715 -0.39036049 0 0 Z " fill="#2170AF" transform="translate(197,116)"/>
<path d="M0 0 C0.66 0 1.32 0 2 0 C2 0.66 2 1.32 2 2 C2.66 2 3.32 2 4 2 C4 2.66 4 3.32 4 4 C3.01 4 2.02 4 1 4 C1 4.66 1 5.32 1 6 C1.99 6.66 2.98 7.32 4 8 C1.625 8.125 1.625 8.125 -1 8 C-1.66 7.34 -2.32 6.68 -3 6 C-2.63318342 3.06546739 -2.13562754 2.13562754 0 0 Z " fill="#A13037" transform="translate(180,222)"/>
<path d="M0 0 C-0.33 2.64 -0.66 5.28 -1 8 C-3.33333333 5.66666667 -5.66666667 3.33333333 -8 1 C-5.10765685 0.17361624 -3.11257569 0 0 0 Z " fill="#A42D39" transform="translate(296,117)"/>
<path d="M0 0 C2.31 0.33 4.62 0.66 7 1 C7.33 1.99 7.66 2.98 8 4 C5.36 4 2.72 4 0 4 C0 2.68 0 1.36 0 0 Z " fill="#F5F4F6" transform="translate(144,371)"/>
<path d="M0 0 C0.66 0.99 1.32 1.98 2 3 C1.67 3.66 1.34 4.32 1 5 C2.32 5 3.64 5 5 5 C5 5.99 5 6.98 5 8 C5.66 8.33 6.32 8.66 7 9 C2.61031544 9 1.23094261 6.87194899 -2 4 C-1.34 2.68 -0.68 1.36 0 0 Z " fill="#217DB7" transform="translate(257,173)"/>
<path d="M0 0 C0.99 0.33 1.98 0.66 3 1 C2.67 1.66 2.34 2.32 2 3 C2.66 3.33 3.32 3.66 4 4 C1.6875 5.125 1.6875 5.125 -1 6 C-1.99 5.34 -2.98 4.68 -4 4 C-2.68 2.68 -1.36 1.36 0 0 Z " fill="#D0E1EA" transform="translate(252,174)"/>
<path d="M0 0 C0.33 0 0.66 0 1 0 C1 3.3 1 6.6 1 10 C-0.98 10.99 -0.98 10.99 -3 12 C-2.01 8.04 -1.02 4.08 0 0 Z " fill="#E9EFF1" transform="translate(326,254)"/>
<path d="M0 0 C0.99 0 1.98 0 3 0 C2.50168276 3.68754757 1.89932357 5.60490662 -1 8 C-1.625 5.6875 -1.625 5.6875 -2 3 C-1.34 2.01 -0.68 1.02 0 0 Z " fill="#BECFDC" transform="translate(255,169)"/>
<path d="M0 0 C0.97791242 2.64036353 1.03638105 3.87266632 0.25 6.625 C-1 9 -1 9 -4 11 C-3.74438677 8.6568787 -3.40729228 6.32156597 -3 4 C-2.34 3.67 -1.68 3.34 -1 3 C-0.67 2.01 -0.34 1.02 0 0 Z " fill="#C3D8E6" transform="translate(262,160)"/>
<path d="M0 0 C3.3 0.33 6.6 0.66 10 1 C10 1.66 10 2.32 10 3 C6.18510326 4.46726798 3.70988378 3.43336419 0 2 C0 1.34 0 0.68 0 0 Z " fill="#0B7DC4" transform="translate(246,129)"/>
<path d="M0 0 C0.66 1.32 1.32 2.64 2 4 C0.71034824 5.37562854 -0.62689293 6.70766393 -2 8 C-2.66 8 -3.32 8 -4 8 C-2.87548273 5.0280615 -1.77706209 2.66559313 0 0 Z " fill="#DAEDF5" transform="translate(213,184)"/>
<path d="M0 0 C0.66 0.99 1.32 1.98 2 3 C0.35 4.65 -1.3 6.3 -3 8 C-3.33 7.01 -3.66 6.02 -4 5 C-2.0625 2.3125 -2.0625 2.3125 0 0 Z " fill="#E73749" transform="translate(142,370)"/>
<path d="M0 0 C4.95696581 1.23924145 7.11658466 2.78577758 10 7 C8.35 6.67 6.7 6.34 5 6 C5 5.01 5 4.02 5 3 C3.35 2.67 1.7 2.34 0 2 C0 1.34 0 0.68 0 0 Z " fill="#C0D6EC" transform="translate(248,133)"/>
<path d="M0 0 C0 0.66 0 1.32 0 2 C-2 4 -2 4 -5 6 C-5.99 5.67 -6.98 5.34 -8 5 C-2.25 0 -2.25 0 0 0 Z " fill="#D4EDF8" transform="translate(222,178)"/>
<path d="M0 0 C2.31 1.98 4.62 3.96 7 6 C6.67 6.99 6.34 7.98 6 9 C5.34 8.67 4.68 8.34 4 8 C4 7.34 4 6.68 4 6 C3.34 6 2.68 6 2 6 C1.34 4.02 0.68 2.04 0 0 Z " fill="#2E82B6" transform="translate(216,169)"/>
</svg>
